<?xml version="1.0" standalone="no"?>
<!DOCTYPE svg PUBLIC "-//W3C//DTD SVG 1.1//EN" "http://www.w3.org/Graphics/SVG/1.1/DTD/svg11.dtd" >
<svg xmlns="http://www.w3.org/2000/svg">
<metadata>Generated by IcoMoon</metadata>
<defs>
<font id="iff" horiz-adv-x="1024">
<font-face units-per-em="1024" ascent="960" descent="-64" />
<missing-glyph horiz-adv-x="1024" />
<glyph unicode="&#x20;" horiz-adv-x="512" d="" />
<glyph unicode="&#xe900;" glyph-name="edit" d="M910.2 684.2l-64.8-64.8-162 162.2 64.8 64.8c13.2 13.2 36.2 13.2 49.4 0l112.6-112.8c13.6-13.6 13.6-35.8 0-49.4zM368.8 142.2l-162 162.2 418.8 419.4 162-162.2-418.8-419.4zM169.4 226.2l121.2-121.4-168.8-47.6 47.6 169zM968 791.4l-112.6 112.8c-22 22-101.4 63.6-164.8 0l-570.6-571c-5-5-8.6-11-10.4-17.8l-86-306.2c-4-14.2 0.2-29.4 10.4-40 10.4-10.6 31.2-12.4 40-10.4l306 86.2c6.8 1.8 12.8 5.4 17.8 10.4l570.2 571c45.4 45.4 45.4 119.4 0 165z" />
<glyph unicode="&#xe901;" glyph-name="iff" horiz-adv-x="3296" d="M3303.392 572.987c0-5.376-4.128-9.792-9.536-9.792h-293.856c-5.12 0-9.536 4.16-9.536 9.792v67.712c-0.48 4.64-4.384 8.32-9.056 8.32h-263.072c-4.864-0.256-8.8-4.16-8.8-9.056v-106.848c0.48-4.864 4.384-8.576 9.28-8.576l173.344-0.256c4.864 0 9.28-4.384 9.28-9.536v-165.28c0-5.12-4.384-9.28-9.28-9.28l-173.344-0.256c-5.12-0.48-9.056-4.384-9.056-9.28v-106.112c1.216-2.912 3.648-5.12 7.104-5.6h179.68c5.12 0 9.28-4.384 9.28-9.536v-287.744c0-5.12-4.384-9.536-9.28-9.536h-747.84c-5.12 0-9.536 4.16-9.536 9.536v287.744c0 5.12 4.128 9.536 9.536 9.536h125.92c3.648 0.736 6.624 3.424 7.104 7.36v414.4c-0.256 4.384-4.384 8.32-9.056 8.32h-123.936c-5.12 0-9.536 4.384-9.536 9.536v272.832c0 5.376 4.128 9.792 9.536 9.792h1144.896c5.376 0 9.536-4.128 9.536-9.792v-358.4h0.224zM2033.568 931.419c0 5.376-4.384 9.792-9.536 9.792h-1144.896c-5.12 0-9.28-4.128-9.28-9.792v-272.832c0-5.12 4.16-9.536 9.28-9.536h124.192c4.64 0 8.576-3.904 8.8-8.32v-414.624c-0.48-3.904-3.424-6.368-7.104-7.36h-125.92c-5.12 0-9.28-4.384-9.28-9.536v-287.488c0-5.12 4.16-9.536 9.28-9.536h747.36c5.12 0 9.536 4.16 9.536 9.536v287.744c0 5.12-4.16 9.536-9.536 9.536h-179.68c-3.168 0.48-5.888 2.688-7.104 5.6v106.112c0 4.864 4.16 8.8 9.056 9.28l173.6 0.256c4.864 0 9.28 4.16 9.28 9.28v165.28c0 5.12-4.384 9.536-9.28 9.536l-173.344 0.256c-4.864 0-8.8 3.648-9.28 8.576v106.848c0.256 4.864 3.904 8.8 8.8 9.056h263.296c4.64 0 8.32-3.648 8.8-8.32v-67.712c0-5.376 4.384-9.792 9.536-9.792h294.112c4.864 0 9.536 4.16 9.536 9.792l-0.256 358.4 0.032-0.032zM624.864 649.019h125.152c5.12 0 9.28 4.384 9.28 9.536v272.832c0 5.376-4.16 9.792-9.28 9.792h-747.84c-5.376 0-9.536-4.128-9.536-9.792v-272.832c0-5.12 4.16-9.536 9.536-9.536h124.192c4.864 0 8.576-3.904 9.056-8.32v-414.624c-0.736-3.904-3.424-6.368-7.104-7.36h-126.176c-5.376 0-9.536-4.384-9.536-9.536v-287.488c0-5.12 4.16-9.536 9.536-9.536h747.616c5.12 0 9.28 4.16 9.28 9.536v287.744c0 5.12-4.16 9.536-9.28 9.536h-126.912c-3.168 0.48-5.6 2.688-6.848 5.6v415.36c0 4.864 3.904 8.8 8.8 9.056l0.064 0.032z" />
<glyph unicode="&#xe902;" glyph-name="arrow-down" d="M787.811 338.14c20.832 20.832 53.628 20.832 74.46 0 20.128-20.832 20.128-53.628 0-74.46l-312.009-312.056c-9.665-9.665-23.084-15.624-37.957-15.624s-28.292 5.959-38.004 15.624l-312.009 312.056c-20.832 20.832-20.832 53.628 0 74.46s53.628 20.832 74.46 0l222.676-223.427v793.16c-0.047 29.043 23.788 52.127 52.83 52.127s52.127-23.084 52.127-52.127v-793.113l223.427 223.38z" />
<glyph unicode="&#xe903;" glyph-name="arrow-up" d="M563.67 781.505v-793.835c0-28.183-23.486-51.67-51.67-51.67s-51.67 23.486-51.67 51.67v793.835l-225.468-225.468c-18.789-18.789-51.67-18.789-70.459 0s-23.486 56.367 0 75.156l310.018 314.716c9.394 9.394 23.486 14.092 37.578 14.092s28.183-4.697 37.578-14.092l314.716-314.716c18.789-18.789 18.789-51.67 0-75.156-18.789-18.789-51.67-18.789-75.156 0l-225.468 225.468z" />
<glyph unicode="&#xe904;" glyph-name="delete" d="M938.666 789.334h-213.334v128c0.002 23.552-19.070 42.666-42.666 42.666h-341.332c-23.594 0-42.666-19.114-42.666-42.666v-128h-213.334c-23.594 0-42.666-19.114-42.666-42.666s19.070-42.668 42.666-42.668h42.666v-640c0-70.57 57.43-128 128-128h512c70.57 0 128 57.43 128 128v640h42.666c23.594 0 42.666 19.114 42.666 42.666s-19.070 42.668-42.666 42.668zM384 874.666h256v-85.334h-256v85.334zM810.666 64c0-23.51-19.114-42.666-42.666-42.666h-512c-23.552 0-42.666 19.158-42.666 42.666v640h597.334v-640zM384 618.666c-23.594 0-42.666-19.114-42.666-42.666v-384c0-23.552 19.072-42.666 42.666-42.666s42.666 19.114 42.666 42.666v384c0 23.552-19.072 42.666-42.666 42.666zM640 618.666c-23.594 0-42.666-19.114-42.666-42.666v-384c0-23.552 19.072-42.666 42.666-42.666s42.666 19.114 42.666 42.666v384c0 23.552-19.072 42.666-42.666 42.666z" />
<glyph unicode="&#xe905;" glyph-name="barcode" d="M0 944.014h63.919v-814.788h-63.919v814.788zM150.255 944.014h63.919v-496.877h-63.919v496.877zM150.255 364.042h63.919v-170.895h-63.919v170.895zM300.512 944.014h63.919v-496.877h-63.919v496.877zM300.512 364.042h63.919v-170.895h-63.919v170.895zM450.767 944.014h63.919v-496.877h-63.919v496.877zM601.023 944.014h63.919v-493.691h-63.919v493.691zM751.28 944.014h63.919v-496.877h-63.919v496.877zM698.156 61.486c-119.284 0-216.331 97.044-216.331 216.331s97.044 216.331 216.331 216.331 216.331-97.047 216.331-216.331-97.044-216.331-216.331-216.331zM698.156 430.228c-84.039 0-152.411-68.372-152.411-152.411s68.37-152.411 152.411-152.411 152.411 68.37 152.411 152.411-68.372 152.411-152.411 152.411zM851.126 170.058l172.874-172.874-45.197-45.197-172.874 172.874 45.197 45.197z" />
<glyph unicode="&#xe906;" glyph-name="feedback" d="M934 928h-844c-49.626 0-90-40.374-90-90v-600c0-49.626 40.374-90 90-90h92v-150c0-12.134 7.31-23.074 18.52-27.716 3.712-1.538 7.61-2.284 11.474-2.284 7.808 0 15.482 3.048 21.22 8.788l171.212 171.212h529.574c49.626 0 90 40.374 90 90v600c0 49.626-40.374 90-90 90zM964 238c0-16.542-13.458-30-30-30h-542c-7.956 0-15.586-3.162-21.212-8.788l-128.788-128.784v107.572c0 16.568-13.432 30-30 30h-122c-16.542 0-30 13.458-30 30v600c0 16.542 13.458 30 30 30h844c16.542 0 30-13.458 30-30v-600zM752 628h-60c-22.852 0-43.728-8.576-59.618-22.66l-19.21 12.406c-25.78 16.652-41.172 44.914-41.172 75.606v54.648c0 33.084-26.916 60-60 60-66.168 0-120-53.832-120-120v-60h-61.812c-56.844 0-99.382-52.010-88.252-107.65l36-180c8.384-41.922 45.5-72.35 88.252-72.35h138.308c29.858 0 59.32 4.91 87.562 14.592l35.858 12.292c16.336-16.58 39.026-26.884 64.084-26.884h60c16.568 0 30 13.432 30 30v300c0 16.568-13.432 30-30 30zM602.41 349.57l-29.808-10.218c-21.968-7.532-44.88-11.35-68.104-11.35h-138.308c-14.25 0-26.624 10.142-29.418 24.118l-36 180c-3.716 18.578 10.504 35.882 29.418 35.882h91.81c16.568 0 30 13.432 30 30v90c0 33.084 26.916 60 60 60v-54.65c0-51.15 25.652-98.256 68.622-126.006l22.608-14.6c-0.794-4.8-1.228-9.722-1.228-14.744v-180c0-2.844 0.148-5.654 0.408-8.432zM722 328h-30c-16.542 0-30 13.458-30 30v180c0 16.542 13.458 30 30 30h30v-240z" />
<glyph unicode="&#xe907;" glyph-name="hide-eye" d="M910.392 846.509c-14.628 14.837-38.45 14.628-53.286 0l-133.738-133.738c-165.709 75.227-342.494 56.839-511.129-53.286-125.588-81.914-201.86-184.934-204.995-189.322-10.030-13.792-9.612-32.599 1.045-45.972 71.466-87.765 146.276-156.097 222.757-203.741l-117.647-117.647c-14.628-14.628-14.628-38.45 0-53.286 7.314-7.314 16.926-11.075 26.539-11.075s19.225 3.761 26.539 11.075l743.916 743.707c14.628 14.628 14.628 38.45 0 53.286zM418.906 408.309c-5.433 12.329-8.15 25.703-8.15 39.703 0 26.956 10.448 52.45 29.673 71.675 30.091 30.091 74.601 37.196 111.378 21.523l-132.902-132.902zM607.393 596.587c-68.332 43.883-160.485 35.942-220.040-23.613-33.434-33.434-51.614-77.735-51.614-124.752 0-34.27 9.821-67.078 28.001-95.288l-77.526-77.526c-67.914 39.285-134.782 97.378-199.771 173.232 27.792 32.599 86.512 95.497 166.963 147.947 139.171 90.691 277.715 110.334 412.706 58.719l-58.719-58.719zM1015.71 471.835c-51.614 63.525-105.109 117.020-159.44 159.44-16.508 12.747-40.121 9.821-53.077-6.478-12.747-16.299-9.821-39.912 6.478-52.868 43.047-33.643 86.094-75.436 127.887-124.334-24.658-28.837-72.72-80.661-137.917-128.096-125.588-91.318-252.43-124.334-376.764-98.005-20.27 4.388-40.33-8.777-44.51-29.046-4.388-20.27 8.777-40.33 29.046-44.51 32.39-6.896 64.988-10.239 97.796-10.239 49.316 0 99.049 7.732 148.574 23.195 64.988 20.27 129.558 53.704 192.039 99.258 105.318 77.108 168.217 162.157 170.933 165.709 10.030 13.792 9.612 32.599-1.045 45.972z" />
<glyph unicode="&#xe908;" glyph-name="add" d="M981.333 533.333h-362.667c-12.8 0-21.333 8.533-21.333 21.333v362.667c0 25.6-17.067 42.667-42.667 42.667h-85.333c-25.6 0-42.667-17.067-42.667-42.667v-362.667c0-12.8-8.533-21.333-21.333-21.333h-362.667c-25.6 0-42.667-17.067-42.667-42.667v-85.333c0-25.6 17.067-42.667 42.667-42.667h362.667c12.8 0 21.333-8.533 21.333-21.333v-362.667c0-25.6 17.067-42.667 42.667-42.667h85.333c25.6 0 42.667 17.067 42.667 42.667v362.667c0 12.8 8.533 21.333 21.333 21.333h362.667c25.6 0 42.667 17.067 42.667 42.667v85.333c0 25.6-17.067 42.667-42.667 42.667z" />
<glyph unicode="&#xe909;" glyph-name="close" d="M602.561 447.989l402.675 402.675c25.018 24.996 25.018 65.554 0 90.551-25.018 25.018-65.533 25.018-90.551 0l-402.675-402.675-402.697 402.675c-25.018 25.018-65.533 25.018-90.551 0-25.018-24.996-25.018-65.554 0-90.551l402.697-402.675-402.697-402.675c-25.018-24.996-25.018-65.554 0-90.551 12.509-12.488 28.903-18.742 45.275-18.742s32.766 6.254 45.275 18.763l402.697 402.675 402.675-402.675c12.509-12.509 28.903-18.763 45.275-18.763s32.766 6.254 45.275 18.763c25.018 24.996 25.018 65.554 0 90.551l-402.675 402.654z" />
<glyph unicode="&#xe90a;" glyph-name="bookmark" d="M849.992 960h-676.498c-13.971 0-25.313-11.331-25.313-25.313v-948.024c-0.020-18.994 10.59-36.397 27.478-45.078 16.898-8.672 37.227-7.159 52.642 3.925l283.441 203.183 283.451-203.173c15.425-11.064 35.734-12.567 52.622-3.896 16.878 8.672 27.498 26.064 27.498 45.039v948.024c0 13.981-11.341 25.313-25.322 25.313zM824.679-13.327l-298.174 213.743c-8.82 6.318-20.685 6.318-29.495 0l-298.184-213.753v922.712h625.853z" />
<glyph unicode="&#xe90c;" glyph-name="filter" d="M987.428 484.571h-590.335c-19.832 77.923-99.079 125.014-177.004 105.182-51.677-13.153-92.029-53.505-105.182-105.182h-78.334c-20.199 0-36.572-16.374-36.572-36.572s16.374-36.57 36.572-36.57h78.336c19.832-77.923 99.079-125.014 177.004-105.182 51.677 13.153 92.029 53.505 105.182 105.182h590.333c20.199 0 36.572 16.374 36.572 36.572s-16.374 36.57-36.572 36.57zM256.001 374.857c-40.395 0-73.142 32.747-73.142 73.142s32.747 73.142 73.142 73.142 73.142-32.747 73.142-73.142c0-40.395-32.747-73.142-73.142-73.142zM987.428 850.286h-114.906c-19.832 77.923-99.079 125.014-177.004 105.182-51.677-13.153-92.029-53.505-105.182-105.182h-553.763c-20.199 0-36.572-16.374-36.572-36.572s16.374-36.572 36.572-36.572h553.763c19.832-77.923 99.079-125.014 177.004-105.182 51.677 13.153 92.029 53.505 105.182 105.182h114.906c20.199 0 36.572 16.374 36.572 36.572s-16.374 36.572-36.572 36.572zM731.429 740.572c-40.395 0-73.142 32.747-73.142 73.142s32.747 73.142 73.142 73.142 73.142-32.747 73.142-73.142-32.747-73.142-73.142-73.142zM987.428 118.856h-188.051c-19.832 77.923-99.079 125.014-177.004 105.182-51.677-13.153-92.029-53.505-105.182-105.182h-480.619c-20.199 0-36.572-16.374-36.572-36.57s16.374-36.572 36.572-36.572h480.621c19.832-77.923 99.079-125.014 177.004-105.182 51.677 13.153 92.029 53.505 105.182 105.182h188.048c20.199 0 36.572 16.374 36.572 36.572s-16.374 36.57-36.572 36.57zM658.285 9.142c-40.395 0-73.142 32.747-73.142 73.142s32.747 73.142 73.142 73.142c40.395 0 73.142-32.747 73.142-73.142s-32.745-73.142-73.142-73.142z" />
<glyph unicode="&#xe90d;" glyph-name="approve" d="M511.79 339.614c-5.242-0.013-10.299 1.935-14.178 5.461l-117.944 108.176c-5.628 5.065-8.127 12.749-6.554 20.156s6.977 13.412 14.178 15.754c7.201 2.342 15.104 0.663 20.732-4.402l102.4-94.523 295.857 324.844c7.802 8.701 21.179 9.429 29.88 1.628s9.429-21.179 1.628-29.88l-310.036-340.388c-3.765-4.126-9.018-6.583-14.599-6.827h-1.365zM779.815 561.533c55.864-139.42-2.019-298.55-134.402-369.496s-296.94-31.025-382.097 92.696c-85.157 123.721-63.687 291.685 49.853 390.007s282.848 95.568 393.128-6.397l28.252 31.508c-127.314 116.725-322.439 117.736-450.956 2.336s-148.438-309.507-46.041-448.605c102.398-139.098 293.66-177.742 442.029-89.311s205.372 275.047 131.741 431.29l-31.508-34.028z" />
<glyph unicode="&#xe90f;" glyph-name="reject" d="M512 789.333c-188.329 0-341.333-153.004-341.333-341.333s153.004-341.333 341.333-341.333c188.329 0 341.333 153.004 341.333 341.333s-153.004 341.333-341.333 341.333zM512 758.303c171.559 0 310.303-138.743 310.303-310.303s-138.744-310.303-310.303-310.303c-171.559 0-310.303 138.743-310.303 310.303s138.744 310.303 310.303 310.303zM393.939 580.121c-6.039-0.588-11.182-4.642-13.163-10.377s-0.438-12.099 3.951-16.289l105.455-105.455-105.455-105.212c-4.069-3.87-5.73-9.637-4.342-15.079s5.608-9.709 11.034-11.157c5.426-1.448 11.211 0.149 15.126 4.175l105.455 105.455 105.455-105.455c3.915-4.026 9.7-5.623 15.126-4.175s9.646 5.715 11.034 11.157c1.388 5.442-0.273 11.209-4.342 15.079l-105.455 105.212 105.455 105.455c4.938 4.638 6.296 11.943 3.356 18.046s-9.5 9.593-16.204 8.621c-3.419-0.494-6.576-2.115-8.97-4.606l-105.455-105.455-105.455 105.455c-3.286 3.367-7.923 5.061-12.606 4.606z" />
<glyph unicode="&#xe910;" glyph-name="home" d="M1012.046 523.157l-476.93 418.015c-13.233 11.595-33.004 11.595-46.234 0l-476.93-418.015c-14.563-12.765-16.022-34.923-3.257-49.491 12.765-14.56 34.925-16.022 49.489-3.254l36.928 32.364v-521.576c0-19.366 15.699-35.068 35.068-35.068h763.635c19.369 0 35.068 15.702 35.068 35.068v521.574l36.928-32.367c6.657-5.83 14.9-8.697 23.1-8.697 9.752 0 19.453 4.043 26.385 11.954 12.773 14.572 11.314 36.726-3.252 49.494zM431.019 16.267v288.885h161.957v-288.888l-161.957 0.003zM858.752 563.977v-547.709h-195.631v323.953c0 19.366-15.705 35.068-35.068 35.068h-232.097c-19.366 0-35.068-15.702-35.068-35.068v-323.956h-195.637v547.712c0 0.090-0.011 0.174-0.011 0.261l346.759 303.931 346.765-303.928c0.003-0.093-0.011-0.174-0.011-0.264zM433.445 621.273c0-19.369 15.699-35.068 35.068-35.068h86.97c19.366 0 35.068 15.699 35.068 35.068s-15.702 35.068-35.068 35.068h-86.97c-19.366 0-35.068-15.699-35.068-35.068z" />
<glyph unicode="&#xe911;" glyph-name="rework" d="M788.218 516.741c-26.043 77.162-84.549 139.575-160.606 171.33-76.033 30.986-161.641 29.992-236.91-2.75l38.538 104.296-36.129 13.179-62.624-166.684 162.243-77.843 17.149 34.323-113.493 53.76c56.65 25.979 137.387 39.538 215.618 6.827 66.025-27.372 116.909-81.351 139.699-148.196 21.106-59.6 19.738-124.681-3.854-183.372-26.546-57.493-73.226-103.667-131.51-130.086-64.739-30.23-139.56-31.612-205.406-3.793-88.926 37.262-146.539 118.234-154.151 216.557l-38.538-2.75c8.478-112.735 74.667-205.748 177.177-248.604 75.869-32.090 162.094-30.536 236.717 4.267 67.255 29.982 121.051 83.127 151.26 149.428 27.497 67.133 29.21 141.824 4.817 210.11z" />
<glyph unicode="&#xe912;" glyph-name="inspire" d="M511.999 959.999c-176.007 0-319.203-143.195-319.203-319.203 0-101.297 47.758-195.82 128.531-256.007v-26.656c-19.672-17.289-32.125-42.609-32.125-70.797 0-24.82 9.656-47.422 25.391-64.273-15.734-16.852-25.391-39.445-25.391-64.265 0-42.281 27.977-78.148 66.398-90.055 12.359-75.187 77.765-132.742 156.398-132.742s144.047 57.555 156.406 132.742c38.414 11.914 66.398 47.773 66.398 90.062 0 24.812-9.656 47.414-25.391 64.265 15.734 16.852 25.391 39.445 25.391 64.266 0 28.187-12.453 53.508-32.133 70.805v26.648c80.773 60.187 128.531 154.711 128.531 256.007 0 176.007-143.195 319.203-319.203 319.203zM640.538 321.602c18.891 0 34.266-15.375 34.266-34.266 0-18.898-15.375-34.273-34.266-34.273h-257.070c-18.898 0-34.273 15.375-34.273 34.273 0 18.891 15.375 34.266 34.273 34.266zM511.999-3.999c-43.875 0-81.14 28.828-93.867 68.531h187.734c-12.719-39.711-49.992-68.531-93.867-68.531zM640.538 124.532h-257.070c-18.898 0-34.273 15.375-34.273 34.266 0 18.898 15.375 34.266 34.273 34.266h257.070c18.891 0 34.266-15.367 34.266-34.266 0-18.891-15.375-34.266-34.266-34.266zM655.983 425.242c-8.32-5.57-13.312-14.922-13.312-24.93v-18.766c-0.711 0.016-1.422 0.055-2.133 0.055h-34.273v118.234l43.078 43.078c11.719 11.719 11.719 30.711 0 42.43-11.711 11.719-30.711 11.719-42.422 0l-51.867-51.867c-5.625-5.625-8.789-13.25-8.789-21.211v-130.664h-68.531v130.664c0 7.953-3.164 15.586-8.789 21.211l-51.867 51.867c-11.711 11.711-30.703 11.711-42.422 0-11.719-11.719-11.719-30.711 0-42.43l43.078-43.078v-118.242h-34.266c-0.719 0-1.43-0.031-2.141-0.047v18.766c0 10.008-4.992 19.359-13.312 24.93-72.14 48.297-115.219 128.875-115.219 215.554 0 142.929 116.281 259.203 259.203 259.203s259.203-116.273 259.203-259.203c0-86.68-43.078-167.257-115.219-215.554zM124.265 640.796c0 16.57-13.43 30-30 30h-64.265c-16.57 0-30-13.43-30-30 0-16.562 13.43-30 30-30h64.265c16.57 0 30 13.437 30 30zM993.998 670.796h-64.265c-16.562 0-30-13.43-30-30 0-16.562 13.437-30 30-30h64.265c16.57 0 30 13.437 30 30 0 16.57-13.43 30-30 30zM135.226 457.914l-55.656-32.133c-14.344-8.289-19.258-26.633-10.977-40.984 5.555-9.625 15.641-15 26.008-15 5.086 0 10.25 1.289 14.969 4.023l55.656 32.125c14.352 8.289 19.266 26.633 10.984 40.984s-26.633 19.266-40.984 10.984zM873.795 819.656c5.086 0 10.242 1.297 14.969 4.023l55.664 32.141c14.344 8.281 19.266 26.625 10.977 40.976s-26.633 19.266-40.976 10.977l-55.664-32.133c-14.344-8.281-19.266-26.633-10.977-40.976 5.555-9.625 15.641-15.008 26.008-15.008zM944.42 425.781l-55.656 32.125c-14.352 8.281-32.703 3.367-40.984-10.984-8.281-14.344-3.359-32.695 10.984-40.976l55.664-32.125c4.719-2.727 9.875-4.023 14.969-4.023 10.367 0 20.453 5.383 26.008 15.008 8.289 14.344 3.367 32.695-10.984 40.976zM165.234 875.648l-55.656 32.125c-14.352 8.289-32.695 3.367-40.976-10.984-8.289-14.352-3.367-32.695 10.977-40.976l55.656-32.133c4.727-2.727 9.883-4.023 14.969-4.023 10.375 0 20.453 5.383 26.016 15.008 8.281 14.352 3.359 32.695-10.984 40.984z" />
<glyph unicode="&#xe913;" glyph-name="microphone" d="M743.269 596.774v-99.117c0-132.288-102.619-231.27-231.27-231.27s-231.27 98.983-231.27 231.27v99.117h-66.077v-132.154c4.295-145.634 125.349-249.839 264.31-264.31v-198.23h-165.194v-66.077h396.464v66.077h-165.194v198.23c143.256 10.176 259.948 115.57 264.31 264.31v132.154c-0.003 0-66.080 0-66.080 0zM346.872 511.004c0-80.219 73.939-145.305 165.062-145.305s165.062 65.019 165.062 145.305v303.691c-0.003 80.219-73.878 145.305-164.998 145.305-91.187 0-165.062-65.086-165.062-145.305 0-2.841 0.131-38.655 0.329-41.43v-253.802c-0.262-2.841-0.393-5.682-0.393-8.46zM412.885 761.968c0 71.232 25.638 132.154 99.117 132.154 73.543 0 99.117-60.922 99.117-132.154v-231.27c0-71.232-25.571-99.117-99.117-99.117-73.479 0-99.117 27.885-99.117 99.117v231.27z" />
<glyph unicode="&#xe914;" glyph-name="track" d="M802 158c-41.342 0-76.51-26.84-89.062-64h-554.938c-54.038 0-98 43.962-98 98s43.962 98 98 98h192c87.122 0 158 70.878 158 158s-70.878 158-158 158h-166.938c-9.366 27.732-31.33 49.696-59.062 59.062v72.938h162c16.568 0 30 13.432 30 30v128c0 16.568-13.432 30-30 30h-192c-16.568 0-30-13.432-30-30v-230.938c-37.16-12.552-64-47.72-64-89.062 0-51.832 42.168-94 94-94 41.342 0 76.51 26.84 89.062 64h166.938c54.038 0 98-43.962 98-98s-43.962-98-98-98h-192c-87.122 0-158-70.878-158-158s70.878-158 158-158h554.938c12.552-37.16 47.72-64 89.062-64 51.832 0 94 42.168 94 94s-42.168 94-94 94zM124 866h132v-68h-132v68zM94 542c-18.748 0-34 15.252-34 34s15.252 34 34 34 34-15.252 34-34c0-18.748-15.252-34-34-34zM802 30c-18.748 0-34 15.252-34 34s15.252 34 34 34c18.748 0 34-15.252 34-34s-15.252-34-34-34zM802 734c-51.832 0-94-42.168-94-94s42.168-94 94-94 94 42.168 94 94-42.168 94-94 94zM802 606c-18.748 0-34 15.252-34 34s15.252 34 34 34c18.748 0 34-15.252 34-34s-15.252-34-34-34zM802 862c-122.412 0-222-99.588-222-222 0-66.102 28.798-127.688 79.252-170.030l116.020-227.594c5.122-10.050 15.448-16.376 26.728-16.376s21.606 6.326 26.728 16.376l116.020 227.594c50.454 42.342 79.252 103.928 79.252 170.030 0 122.412-99.588 222-222 222zM902.3 512.774c-3.396-2.682-6.17-6.064-8.136-9.92l-92.164-180.798-92.164 180.798c-1.964 3.854-4.74 7.238-8.136 9.92-39.212 30.962-61.7 77.334-61.7 127.226 0 89.328 72.672 162 162 162s162-72.672 162-162c0-49.892-22.488-96.264-61.7-127.226z" />
<glyph unicode="&#xe915;" glyph-name="design" d="M911.312 913.461c-58.133 60.25-154.672 62.266-215.18 4.484-21.375-20.406-36.266-46.312-43.086-74.906-4.406-18.492-12.437-35.953-23.57-51.477l-19.453 19.453c-16.734 16.734-38.984 25.953-62.648 25.953-23.672 0-45.922-9.219-62.656-25.953-16.742-16.742-25.953-38.992-25.953-62.656 0-23.672 9.219-45.922 25.953-62.656l6.961-6.961-285.43-285.43c-3.023-3.023-5.352-6.664-6.828-10.672l-48.734-132.273c-3.102-8.422-2.148-17.648 2.266-25.164-23.289-23.984-84.953-93.812-84.953-161.219 0-94.469 60.992-127.984 113.219-127.984s113.219 33.516 113.219 127.984c0 34.305-15.969 69.242-34.727 98.445l116.867 43.055c4.008 1.477 7.648 3.805 10.672 6.828l285.43 285.43 6.961-6.961c17.273-17.273 39.961-25.914 62.656-25.914 22.687 0 45.375 8.641 62.648 25.914 34.547 34.547 34.547 90.758 0 125.305l-19.359 19.359c15.609 10.992 33.625 19.195 53.156 24.102 26.68 6.687 51.102 20.547 70.633 40.078 28.477 28.484 44.352 66.344 44.687 106.617 0.344 40.219-14.844 78.297-42.75 107.219zM181.219-4.93c-44.75 0-54.148 37.477-54.148 68.914 0 33.867 30.273 76.836 54.148 104.562 23.883-27.734 54.148-70.703 54.148-104.562 0-31.437-9.391-68.914-54.148-68.914zM350.070 258.664l-108.453-39.953-28.969 28.969 39.961 108.453 113.758 113.758 27.852-27.852c5.766-5.766 13.32-8.648 20.883-8.648 7.555 0 15.117 2.883 20.883 8.648 11.539 11.539 11.539 30.234 0 41.773l-27.844 27.844 41.766 41.773 27.852-27.852c5.766-5.766 13.32-8.648 20.883-8.648 7.555 0 15.117 2.883 20.883 8.648 11.531 11.539 11.531 30.234 0 41.773l-27.852 27.844 41.773 41.773 97.461-97.461zM763.18 532.547c-11.516-11.516-30.25-11.516-41.766 0l-194.93 194.922c-11.516 11.523-11.516 30.258 0 41.773 5.578 5.578 13 8.656 20.891 8.656 7.883 0 15.305-3.078 20.883-8.656l194.922-194.922c11.516-11.523 11.516-30.258 0-41.773zM867.609 741.398c-11.977-11.977-26.93-20.469-43.234-24.562-30.047-7.539-57.641-20.93-81.008-39.172l-71.703 71.711c18.625 23.594 31.906 50.844 38.844 79.977 4.172 17.484 13.305 33.352 26.422 45.875 37.078 35.398 96.234 34.156 131.875-2.781 35.164-36.437 34.625-95.227-1.195-131.047z" />
<glyph unicode="&#xe916;" glyph-name="right-arrow" d="M785.445 502.365l-431.67 431.67c-16.228 16.228-38.948 25.965-58.422 25.965s-38.948-9.737-55.176-25.965c-32.456-32.456-32.456-77.895 0-110.352l376.494-376.494-376.494-376.494c-32.456-32.456-32.456-77.895 0-110.352s81.141-32.456 113.597 0l431.67 431.67c16.228 16.228 22.719 35.702 22.719 55.176 0 22.719-6.491 38.948-22.719 55.176z" />
<glyph unicode="&#xe917;" glyph-name="notes" d="M991.828 580.792c-37.93 31.828-94.686 26.848-126.456-11.012l-85.39-101.046v293.008c0 24.558-10.212 48.34-28.016 65.25l-113.956 108.25c-16.798 15.958-38.81 24.748-61.98 24.748h-486.032c-49.624 0-89.998-40.374-89.998-89.998v-843.982c0-49.624 40.374-89.998 89.998-89.998h599.988c49.624 0 89.998 40.374 89.998 89.998v163.922c3.686 4.366 222.248 263.254 222.936 264.068 31.974 38.104 27.018 94.816-11.092 126.792zM599.988 888.61c120.026-114.016 111.502-105.682 113.752-108.618h-113.752v108.618zM719.984 26.010c0-16.542-13.458-30-30-30h-599.986c-16.542 0-30 13.458-30 30v843.982c0 16.542 13.458 30 30 30h449.99v-149.996c0-16.568 13.432-30 30-30h149.996v-322.258c-12.886-15.248-116.356-137.686-127.54-150.92-8.934-10.648-15.364-23.422-18.592-36.94l-27.88-116.712c-2.638-11.052 1.192-22.648 9.896-29.952 8.712-7.312 20.798-9.058 31.214-4.544l110.1 47.724c8.266 3.584 15.976 8.452 22.802 14.302v-94.686zM648.63 220.346l45.956-38.56-10.22-12.104c-2.974-3.548-6.796-6.398-11.046-8.24l-55.048-23.862 13.942 58.356c1.076 4.506 3.218 8.764 6.128 12.232l10.288 12.178zM733.288 227.632l-45.934 38.542c4.66 5.514 155.396 183.886 165.82 196.22l45.838-38.462-165.724-196.3zM957.018 492.636l-19.298-22.86-45.816 38.444 19.364 22.914c10.578 12.606 29.42 14.25 41.994 3.698 12.824-10.758 14.238-29.704 3.756-42.196zM449.99 779.994h-299.994c-16.568 0-30-13.432-30-30s13.432-30 30-30h299.994c16.568 0 30 13.432 30 30s-13.432 30-30 30zM629.986 597.998h-479.99c-16.568 0-30-13.432-30-30s13.432-30 30-30h479.99c16.568 0 30 13.432 30 30s-13.432 30-30 30zM629.986 418h-479.99c-16.568 0-30-13.432-30-30s13.432-30 30-30h479.99c16.568 0 30 13.432 30 30 0 16.57-13.432 30-30 30zM449.99 238.004h-299.994c-16.568 0-30-13.432-30-30s13.432-30 30-30h299.994c16.568 0 30 13.432 30 30s-13.432 30-30 30z" />
<glyph unicode="&#xe918;" glyph-name="save" d="M1024-64h-1024v1024l840.041-0.492 183.631-183.467 0.328-840.041zM236.308 14.769h551.385v315.077h-551.385v-315.077zM669.538 881.231h-315.077v-315.077h315.077v315.077zM814.605 881.231h-66.297v-393.846h-472.615v393.846h-196.923v-866.462h78.769v393.846h708.923v-393.846h78.769v735.836l-130.626 130.626zM472.615 605.538h-78.769v236.308h78.769v-236.308zM315.077 251.077h393.846v-78.769h-393.846v78.769z" />
<glyph unicode="&#xe919;" glyph-name="product-bank" d="M608.42 833.936h-192.836c-31.774 0-57.628-25.85-57.628-57.628 0-26.454 17.926-48.79 42.264-55.532v-546.926c0-61.638 50.146-111.784 111.784-111.784s111.784 50.146 111.784 111.784v546.924c24.338 6.744 42.264 29.078 42.264 55.532-0.006 31.776-25.858 57.63-57.632 57.63zM582.986 173.848c0-39.14-31.844-70.986-70.986-70.986s-70.986 31.844-70.986 70.986v331.6h141.972v-331.6zM582.986 546.244h-141.972v172.434h141.972v-172.434zM608.42 759.474h-192.838c-9.282 0-16.83 7.552-16.83 16.832 0 9.282 7.55 16.83 16.83 16.83h192.836c9.282 0 16.83-7.552 16.83-16.83 0.002-9.282-7.55-16.832-16.828-16.832zM250.464 833.936h-192.834c-31.778 0-57.63-25.854-57.63-57.63 0-26.456 17.926-48.792 42.266-55.532v-546.926c0-61.638 50.146-111.784 111.784-111.784 61.636 0 111.782 50.146 111.782 111.784v546.926c24.34 6.744 42.266 29.078 42.266 55.532-0.004 31.776-25.858 57.63-57.634 57.63zM225.032 173.848c0-39.14-31.844-70.986-70.986-70.986s-70.986 31.842-70.986 70.986v331.6h141.97v-331.6zM225.034 546.244h-141.972v172.434h141.97v-172.434zM250.464 759.474h-192.834c-9.282 0-16.832 7.552-16.832 16.832 0 9.282 7.552 16.83 16.832 16.83h192.834c9.282 0 16.832-7.552 16.832-16.83 0-9.282-7.55-16.832-16.832-16.832zM966.37 833.934h-192.834c-31.776 0-57.63-25.85-57.63-57.628 0-26.456 17.926-48.792 42.266-55.532v-546.926c0-61.638 50.146-111.784 111.784-111.784 61.636 0 111.782 50.146 111.782 111.784v546.926c24.336 6.744 42.262 29.078 42.262 55.532 0 31.776-25.852 57.628-57.63 57.628zM940.938 173.848c0-39.14-31.844-70.986-70.986-70.986s-70.984 31.844-70.984 70.986v331.6h141.97v-331.6zM940.938 546.244h-141.97v172.434h141.97v-172.434zM966.37 759.474h-192.836c-9.282 0-16.832 7.552-16.832 16.832 0 9.282 7.552 16.83 16.832 16.83h192.834c9.282 0 16.832-7.552 16.832-16.83 0.004-9.282-7.548-16.832-16.83-16.832zM838.374 317.45c-11.264 0-20.398-9.132-20.398-20.398v-12.24c0-11.266 9.134-20.398 20.398-20.398s20.398 9.132 20.398 20.398v12.24c0 11.266-9.134 20.398-20.398 20.398zM838.374 482.678c-11.264 0-20.398-9.132-20.398-20.398v-106.072c0-11.266 9.134-20.398 20.398-20.398s20.398 9.132 20.398 20.398v106.072c0 11.264-9.134 20.398-20.398 20.398z" />
<glyph unicode="&#xe91a;" glyph-name="draft" d="M803.533-20.173h-716.595c-42.291 0-76.698 34.406-76.698 76.698v737.28c0 42.291 34.406 76.698 76.698 76.698h504.32c19.456 0 35.123-15.77 35.123-35.123s-15.77-35.123-35.123-35.123h-504.32c-3.482 0-6.349-2.867-6.349-6.349v-737.28c0-3.482 2.867-6.349 6.349-6.349h716.595c3.482 0 6.349 2.867 6.349 6.349v402.227c0 19.456 15.77 35.123 35.123 35.123 19.456 0 35.123-15.77 35.123-35.123v-402.33c0-42.291-34.304-76.698-76.595-76.698zM903.987 595.046c-4.608 0-9.216 0.922-13.722 2.765-17.92 7.578-26.214 28.16-18.637 46.080l60.928 143.872-143.872 60.928c-17.92 7.578-26.214 28.16-18.637 46.080s28.16 26.214 46.080 18.637l176.23-74.65c8.602-3.686 15.36-10.547 18.842-19.149s3.379-18.33-0.205-26.931l-74.65-176.23c-5.632-13.414-18.739-21.402-32.358-21.402zM566.374 586.035h-345.293c-19.456 0-35.123 15.77-35.123 35.123 0 19.456 15.77 35.123 35.123 35.123h345.19c19.456 0 35.123-15.77 35.123-35.123 0.102-19.456-15.667-35.123-35.021-35.123zM483.226 381.952h-262.144c-19.456 0-35.123 15.77-35.123 35.123 0 19.456 15.77 35.123 35.123 35.123h262.042c19.456 0 35.123-15.77 35.123-35.123 0.102-19.354-15.667-35.123-35.021-35.123zM566.374 177.971h-345.293c-19.456 0-35.123 15.77-35.123 35.123 0 19.456 15.77 35.123 35.123 35.123h345.19c19.456 0 35.123-15.77 35.123-35.123 0.102-19.456-15.667-35.123-35.021-35.123zM625.459 405.914c-11.469 98.816 16.179 196.198 77.926 274.227s150.118 127.283 248.934 138.752c19.251 2.253 36.762-11.571 39.014-30.822s-11.571-36.762-30.822-39.014c-165.478-19.251-284.467-169.574-265.216-335.053l-69.837-8.090z" />
<glyph unicode="&#xe91b;" glyph-name="notifications" d="M129.912 424.348v-311.224c-61.135-4.616-122.27-54.823-122.27-118.236v-34.144c0-16.873 21.336-24.744 38.21-24.744h947.596c16.873 0 22.926 7.871 22.926 24.744v34.144c0 63.84-30.568 111.358-106.987 117.853v311.606c0 164.332-103.487 305.004-249.050 361.233 2.812 4.616 4.509 9.965 4.509 15.758v19.609c0 75.961-48.068 139.052-121.95 139.052h-17.439c-77.703 0-151.004-66.836-151.004-139.052v-19.609c0-5.793 1.697-11.142 4.509-15.758-145.563-56.229-249.050-196.901-249.050-361.233zM435.589 820.948c0 38.408 46.065 77.917 89.869 77.917h17.454c39.661 0 60.814-36.131 60.814-77.917v-18.325c-15.284 5.961-55.19 9.186-84.061 9.186s-53.493-3.225-84.061-9.186l-0.015 18.325zM519.65 750.673c181.19 0 328.602-146.388 328.602-326.325v-341.349c0-16.873 21.336-24.744 38.21-24.744h15.712c37.445 0 53.065-27.878 53.065-63.367v2.231h-886.461v-2.231c0 36.024 43.987 63.367 79.14 63.367h20.205c16.873 0 22.926 7.871 22.926 24.744v341.349c0 179.936 147.412 326.325 328.602 326.325z" />
<glyph unicode="&#xe91c;" glyph-name="wiki" d="M445.935 712.258c-109.29 0-198.194-88.903-198.194-198.194s88.903-198.194 198.194-198.194 198.194 88.903 198.194 198.194-88.903 198.194-198.194 198.194zM445.935 679.226c89.734 0 162.815-71.96 164.96-161.177l-103.419-46.548c-9.516 24.823-33.411 42.565-61.54 42.565-27.992 0-51.831-17.573-61.444-42.218l-103.387 48.661c3.419 88.065 75.944 158.718 164.831 158.718zM478.968 448c0-18.218-14.815-33.032-33.032-33.032s-33.032 14.815-33.032 33.032 14.815 33.032 33.032 33.032 33.032-14.815 33.032-33.032zM445.935 348.903c-80.331 0-147.387 57.694-162.089 133.798l97.129-45.718c5.29-31.185 32.306-55.048 64.96-55.048 32.605 0 59.573 23.782 64.944 54.887l96.75 43.532c-15.621-74.952-82.185-131.452-161.694-131.452zM738.387 360.581c-6.46 6.46-16.895 6.46-23.355 0l-21.355-21.355-28.113 28.113c28.145 42.016 44.629 92.468 44.629 146.726 0 4.113-0.427 8.113-0.613 12.169l110.871 49.895c10.855-7.806 24.032-12.516 38.387-12.516 36.435 0 66.065 29.629 66.065 66.065 0 22.944-11.774 43.153-29.581 55l57.492 143.702c1.718-0.129 3.371-0.508 5.121-0.508 36.435 0 66.065 29.629 66.065 66.065s-29.629 66.065-66.065 66.065-66.065-29.629-66.065-66.065c0-22.944 11.774-43.153 29.581-55l-57.492-143.702c-1.718 0.129-3.371 0.508-5.121 0.508-11.79 0-22.71-3.355-32.306-8.79l-93.218 106.548c6.161 10.040 9.911 21.734 9.911 34.371 0 36.435-29.629 66.065-66.065 66.065-23.968 0-44.79-12.968-56.387-32.105l-257.605 30.306c0.024 0.613 0.185 1.185 0.185 1.798 0 36.435-29.629 66.065-66.065 66.065s-66.065-29.629-66.065-66.065c0-16.766 6.476-31.911 16.798-43.573l-150.677-195.879c-4.645 2.508-9.548 4.524-14.766 5.879v169.855c28.411 7.379 49.548 33.016 49.548 63.718 0 36.435-29.629 66.065-66.065 66.065s-66.065-29.629-66.065-66.065c0-30.702 21.137-56.339 49.548-63.718v-169.855c-28.411-7.379-49.548-33.016-49.548-63.718 0-36.435 29.629-66.065 66.065-66.065 22.661 0 42.677 11.476 54.589 28.919l61.863-29.105c-0.347-5.427-0.839-10.815-0.839-16.331 0-145.702 118.556-264.258 264.258-264.258 54.258 0 104.71 16.484 146.726 44.629l28.113-28.113-21.355-21.355c-3.105-3.089-4.839-7.282-4.839-11.677s1.734-8.589 4.839-11.677l256.823-256.823c18.565-18.565 43.242-28.79 69.484-28.79 54.194 0 98.274 44.081 98.274 98.274 0 26.242-10.226 50.919-28.79 69.484zM957.935 926.968c18.218 0 33.032-14.815 33.032-33.032s-14.815-33.032-33.032-33.032-33.032 14.815-33.032 33.032 14.815 33.032 33.032 33.032zM918.065 134.194l-92.258-92.258-141.806 141.806 92.258 92.258zM891.871 629.677c0-18.218-14.815-33.032-33.032-33.032s-33.032 14.815-33.032 33.032 14.815 33.032 33.032 33.032 33.032-14.815 33.032-33.032zM677.161 860.903c18.218 0 33.032-14.815 33.032-33.032s-14.815-33.032-33.032-33.032-33.032 14.815-33.032 33.032 14.815 33.032 33.032 33.032zM297.29 926.968c18.218 0 33.032-14.815 33.032-33.032s-14.815-33.032-33.032-33.032-33.032 14.815-33.032 33.032 14.815 33.032 33.032 33.032zM33.032 893.935c0 18.218 14.815 33.032 33.032 33.032s33.032-14.815 33.032-33.032-14.815-33.032-33.032-33.032-33.032 14.815-33.032 33.032zM66.065 563.613c-18.218 0-33.032 14.815-33.032 33.032s14.815 33.032 33.032 33.032 33.032-14.815 33.032-33.032-14.815-33.032-33.032-33.032zM131.548 590.895c0.169 1.919 0.581 3.782 0.581 5.75 0 13.016-3.911 25.089-10.435 35.331l153.766 199.895c6.871-2.427 14.137-4 21.831-4 23.968 0 44.79 12.968 56.387 32.105l257.621-30.306c-0.040-0.613-0.202-1.185-0.202-1.798 0-36.435 29.629-66.065 66.065-66.065 11.79 0 22.71 3.355 32.306 8.79l93.234-106.548c-6.177-10.040-9.927-21.734-9.927-34.371 0-9.677 2.21-18.815 5.96-27.105l-92.935-41.815c-22.129 123.492-130.113 217.565-259.863 217.565-128.298 0-235.435-91.944-259.234-213.387zM214.71 514.065c0 127.508 103.718 231.226 231.226 231.226s231.226-103.718 231.226-231.226-103.718-231.226-231.226-231.226-231.226 103.718-231.226 231.226zM618.992 314.815c9.331 8.105 18.089 16.863 26.194 26.194l25.137-25.137-26.194-26.194zM655.806 254.645l70.903 70.903 26.194-26.194-92.258-92.258-26.194 26.194zM925.726-30.968c-17.419 0-33.806 6.79-46.113 19.113l-30.452 30.435 92.258 92.258 30.435-30.435c12.323-12.323 19.113-28.71 19.113-46.129 0-35.976-29.266-65.242-65.242-65.242zM908.387 51.613h33.032v-33.032h-33.032z" />
<glyph unicode="&#xe91d;" glyph-name="wow" d="M691.2 499.2c40.96 0 76.8 35.84 76.8 76.8s-35.84 76.8-76.8 76.8-76.8-35.84-76.8-76.8 35.84-76.8 76.8-76.8zM332.8 499.2c40.96 0 76.8 35.84 76.8 76.8s-35.84 76.8-76.8 76.8-76.8-35.84-76.8-76.8 35.84-76.8 76.8-76.8zM512 140.8c133.12 0 245.76 87.040 291.84 204.8h-583.68c46.080-117.76 158.72-204.8 291.84-204.8zM512 960c-281.6 0-512-230.4-512-512s230.4-512 512-512 512 230.4 512 512-230.4 512-512 512zM512 38.4c-225.28 0-409.6 184.32-409.6 409.6s184.32 409.6 409.6 409.6 409.6-184.32 409.6-409.6-184.32-409.6-409.6-409.6z" />
<glyph unicode="&#xe91f;" glyph-name="trend-watch" d="M962.346 959.688l-96.008-71.865-96.553-225.116h-77.643l-30.487 66.066h19.919c36.435 0 66.066 29.315 66.066 65.75v66.381h33.033v99.095h-99.099v-99.095h33.033v-66.381c0-18.202-14.813-32.717-33.033-32.717h-35.163l-42.217 91.333 50.573 25.205-165.591 70.922-38.929-136.242c-1.058 81.060-67.238 146.678-148.548 146.678-81.968 0-148.645-66.676-148.645-148.645 0-49.532 25.087-95.991 66.066-123.457v-24.889h-40.001l-2.577-13.544c-8.026-41.638-8.772-84.431-2.213-127.109l-112.674-200.837 124.432-28.423v-208.152h165.161v-148.645h396.388v230.152c115.612 81.788 181.643 213.289 181.546 353.578l0.035 60.249c0 22.711-2.098 46.046-6.326 69.038l-2.445 13.693h-32.422l74.324 178.060v118.917zM714.602 893.622v33.033h33.033v-33.033h-33.033zM655.758 662.711h-62.646l-30.026 66.066h62.185l30.487-66.066zM510.613 904.093l65.653-28.129-15.493-7.596 49.251-106.563h-61.952l-40.251 88.343-14.782-7.464 17.574 61.408zM556.825 662.707h-73.447v32.717c0 18.216 14.813 33.345 33.033 33.345l10.388 0.003 30.026-66.066zM491.967 805.13l20.033-44.083c-34.354-2.313-61.654-30.688-61.654-65.618v-32.717h-66.066v24.889c33.050 22.149 55.477 56.715 63.041 95.214l44.645 22.316zM186.089 811.040c0 63.735 51.877 115.612 115.612 115.612s115.612-51.877 115.612-115.612c0-41.028-22.163-79.36-57.821-100.021l-8.241-4.755v-43.553h-33.033v101.839c19.177 6.836 33.033 25.007 33.033 46.511 0 27.317-22.232 49.549-49.549 49.549s-49.549-22.236-49.549-49.553c0-21.504 13.856-39.671 33.033-46.511v-101.839h-33.033v43.556l-8.241 4.773c-35.658 20.661-57.821 58.98-57.821 100.004zM301.701 794.523c-9.118 0-16.516 7.419-16.516 16.516 0 9.118 7.398 16.516 16.516 16.516s16.516-7.398 16.516-16.516-7.398-16.516-16.516-16.516zM892.645 629.674c2.397-16.513 3.604-33.262 3.604-49.546l0.035-60.367c0.101-132.312-65.188-256.213-174.411-331.411l-7.266-4.956v-214.364h-330.322v148.645h-165.165v201.465l-107.041 24.428 96.685 172.379-0.94 5.896c-6.143 36.137-6.489 74.803-1.155 107.832h685.978zM852.232 662.711h-46.525l82.333 191.951 36.616-18.233-72.423-173.718zM929.313 870.814l-18.268 9.132 18.268 13.676v-22.808zM334.734 530.579c-27.317 0-49.549 16.516-49.549 49.549h-33.033c0-49.549 37.046-82.582 82.582-82.582s82.582 33.033 82.582 82.582h-33.033c-0.003-33.033-22.232-49.549-49.549-49.549z" />
<glyph unicode="&#xe920;" glyph-name="support" d="M341.333 960c-141.385 0-256-114.615-256-256v-187.733c0.075-65.948 53.519-119.392 119.467-119.467h17.067v34.133h-17.067c-47.104 0.055-85.278 38.229-85.333 85.333v187.733c0 122.534 99.332 221.867 221.867 221.867s221.867-99.332 221.867-221.867v-187.733c-0.055-47.104-38.229-85.278-85.333-85.333h-17.067v-34.133h17.067c65.948 0.075 119.392 53.519 119.467 119.467v187.733c0 141.385-114.615 256-256 256zM140.646 155.665l12.476 19.644-28.826 18.295-12.476-19.661c-37.732-59.46-34.931-136.021 7.049-192.563v-45.38h34.133v51.2c0.002 3.876-1.316 7.639-3.738 10.667-36.284 45.359-39.746 108.757-8.619 157.798zM938.667 960h-221.867c-47.104-0.055-85.278-38.229-85.333-85.333v-170.667c0.055-47.104 38.229-85.278 85.333-85.333h34.133v-68.267c-0.002-6.901 4.154-13.126 10.53-15.77 2.071-0.864 4.292-1.303 6.537-1.297 4.527 0 8.866 1.801 12.066 5.001l80.333 80.333h78.268c47.104 0.055 85.278 38.229 85.333 85.333v170.667c-0.055 47.104-38.229 85.278-85.333 85.333zM989.867 704c0-28.277-22.923-51.2-51.2-51.2h-85.333c-4.527 0-8.866-1.801-12.066-5.001l-56.201-56.201v44.134c0 9.425-7.642 17.067-17.067 17.067h-51.2c-28.277 0-51.2 22.923-51.2 51.2v170.667c0 28.277 22.923 51.2 51.2 51.2h221.867c28.277 0 51.2-22.923 51.2-51.2v-170.667zM716.8 874.667h119.467v-34.133h-119.467v34.133zM870.4 874.667h68.267v-34.133h-68.267v34.133zM716.8 806.4h221.867v-34.133h-221.867v34.133zM716.8 738.133h119.467v-34.133h-119.467v34.133zM570.846 173.943l-12.476 19.661-28.826-18.295 12.476-19.661c31.13-49.035 27.667-112.429-8.619-157.781-2.421-3.027-3.74-6.79-3.738-10.667v-51.2h34.133v45.38c41.98 56.542 44.781 133.103 7.049 192.563zM1006.933 379.733h-153.6c-64.034-0.075-116.621-50.622-119.228-114.603l-51.439-92.604v70.673c-0.075 65.948-53.519 119.392-119.467 119.467h-62.379l-0.461 0.358-0.307-0.358h-39.253c-18.852 0-34.133 15.281-34.133 34.133v40.158c52.734 30.447 85.252 86.684 85.333 147.575v136.533c-0.026 28.277-7.061 56.107-20.48 80.998-4.299 7.919-14.014 11.134-22.187 7.339l-288.87-135.919c-5.982-2.816-9.798-8.834-9.796-15.445v-73.506c0.081-60.892 32.599-117.129 85.333-147.575v-40.158c0-18.852-15.281-34.133-34.133-34.133h-102.4c-65.948-0.075-119.392-53.519-119.467-119.467v-307.2h34.133v307.2c0.055 47.104 38.229 85.278 85.333 85.333h54.306l153.685-214.733c3.157-4.414 8.226-7.061 13.653-7.134h0.222c5.372 0 10.43 2.53 13.653 6.827l162.133 215.040h46.080c47.104-0.055 85.278-38.229 85.333-85.333v-136.533c0.009-9.425 7.657-17.060 17.082-17.052 6.191 0.006 11.893 3.362 14.901 8.774l80.452 144.811h97.843l-166.4-307.2h38.827l166.468 307.2h6.827c65.948 0.075 119.392 53.519 119.467 119.467 0 9.425-7.642 17.067-17.067 17.067zM204.8 584.533v62.669l263.526 124.006c6.304-15.966 9.54-32.977 9.54-50.142v-136.533c0-75.405-61.129-136.533-136.533-136.533s-136.533 61.129-136.533 136.533zM341.692 152.542l-52.668 73.591h108.134l-55.467-73.591zM422.98 260.267h-158.447l-48.862 68.267h6.195c37.702 0 68.267 30.564 68.267 68.267v24.934c33.327-10.49 69.073-10.49 102.4 0v-24.934c0-37.702 30.564-68.267 68.267-68.267h13.653l-51.473-68.267zM904.533 277.333h-134.827c8.16 39.708 43.089 68.222 83.627 68.267h134.827c-8.16-39.708-43.089-68.222-83.627-68.267z" />
<glyph unicode="&#xe921;" glyph-name="smile" d="M512 832c211.75 0 384-172.25 384-384s-172.25-384-384-384-384 172.25-384 384 172.25 384 384 384zM512 896c-247.438 0-448-200.562-448-448s200.562-448 448-448 448 200.562 448 448-200.562 448-448 448v0zM384 672c-35.376 0-64-43-64-96 0-53.062 28.626-96 64-96s64 42.938 64 96c0 53-28.624 96-64 96zM640 672c-35.376 0-64-43-64-96 0-53.062 28.626-96 64-96s64 42.938 64 96c0 53-28.624 96-64 96zM798.75 375.062c4.938 16.938-4.812 34.688-21.812 39.688-16.938 5.062-34.688-4.876-39.688-21.75-29-99.5-121.624-169-225.25-169s-196.25 69.5-225.282 169c-4.938 16.876-22.5 26.812-39.688 21.75-16.968-5-26.688-22.75-21.75-39.688 36.938-126.624 154.846-215.062 286.72-215.062s249.75 88.438 286.75 215.062z" />
<glyph unicode="&#xe922;" glyph-name="sales" d="M1016.274 359.088l-57.134 88.912 57.132 88.912-83.934 64.074 23.116 103.036-100.884 31.382-13.468 104.812-105.534-4.852-48.422 93.846-97.412-40.77-77.734 71.56-77.734-71.56-97.412 40.764-48.422-93.844-105.532 4.856-13.47-104.812-100.884-31.382 23.116-103.034-83.936-64.076 57.134-88.912-57.132-88.912 83.934-64.074-23.116-103.034 100.884-31.382 13.468-104.812 105.534 4.852 48.422-93.846 97.412 40.766 77.734-71.558 77.734 71.56 97.412-40.764 48.422 93.844 105.532-4.854 13.47 104.812 100.884 31.382-23.116 103.032 83.936 64.076zM327.264 632.734c39.234 39.234 103.070 39.234 142.302 0 39.232-39.232 39.232-103.068 0-142.3-19.616-19.618-45.384-29.426-71.152-29.426-25.766 0-51.534 9.808-71.15 29.426-39.23 39.232-39.23 103.068 0 142.3zM378.502 272.078l-42.426 42.426 309.42 309.418 42.426-42.426-309.42-309.418zM696.736 263.266c-19.618-19.618-45.384-29.426-71.152-29.426-25.766 0-51.534 9.808-71.15 29.426-39.232 39.232-39.232 103.068 0 142.3s103.068 39.236 142.302 0c39.23-39.232 39.23-103.068 0-142.3zM654.308 363.142c-7.918 7.916-18.322 11.878-28.724 11.878-10.404 0-20.804-3.958-28.726-11.878-15.838-15.84-15.838-41.61 0-57.45 15.84-15.84 41.61-15.842 57.45 0 15.838 15.838 15.838 41.612 0 57.45zM427.14 590.31c-7.92 7.92-18.322 11.878-28.726 11.878-10.402 0-20.804-3.958-28.724-11.878-15.838-15.838-15.838-41.612 0-57.45 15.84-15.84 41.612-15.84 57.45 0s15.838 41.61 0 57.45z" />
<glyph unicode="&#xe923;" glyph-name="sad" d="M512 832c211.75 0 384-172.25 384-384s-172.25-384-384-384-384 172.25-384 384 172.25 384 384 384zM512 896c-247.438 0-448-200.562-448-448s200.562-448 448-448 448 200.562 448 448-200.562 448-448 448v0zM384 672c-35.376 0-64-43-64-96 0-53.062 28.626-96 64-96s64 42.938 64 96c0 53-28.624 96-64 96zM640 672c-35.376 0-64-43-64-96 0-53.062 28.626-96 64-96s64 42.938 64 96c0 53-28.624 96-64 96zM787.188 230.374c14.126 10.626 17 30.688 6.438 44.812-66.188 88.188-171.438 140.814-281.626 140.814s-215.468-52.626-281.594-140.812c-10.626-14.126-7.75-34.188 6.376-44.812 14.156-10.562 34.188-7.688 44.812 6.438 54.124 72.124 140.25 115.186 230.406 115.186 90.126 0 176.312-43.062 230.376-115.188 6.312-8.374 15.936-12.812 25.624-12.812 6.688 0 13.438 2.062 19.188 6.374z" />
<glyph unicode="&#xe924;" glyph-name="orders" d="M594.43 439.927l-45.889-26.556v-477.371l413.212 238.579v477.371zM669.212 868.010l-158.911 91.99-424.684-245.165 159.124-91.99zM934.772 714.835l-183.13 104.312-424.471-245.165 24.219-12.534 158.911-91.778 158.061 91.14zM295.090 398.5l-76.056 39.090v121.52l-156.787 90.29v-473.972l410.237-236.88v473.972l-177.394 102.188z" />
<glyph unicode="&#xe925;" glyph-name="calender" d="M721.552 823.899v103.696h-77.772v-103.696h-263.559v103.696h-77.772v-103.696h-302.448v-168.506h1024v168.506zM0-31.595h1024v609.215h-1024v-609.215zM680.506 454.481h129.62v-129.62h-129.62v129.62zM680.506 221.165h129.62v-129.62h-129.62v129.62zM447.19 454.481h129.62v-129.62h-129.62v129.62zM447.19 221.165h129.62v-129.62h-129.62v129.62zM213.873 454.481h129.62v-129.62h-129.62v129.62zM213.873 221.165h129.62v-129.62h-129.62v129.62z" />
<glyph unicode="&#xe926;" glyph-name="iff-today" d="M529.067 686.933h-238.933v-238.933h238.933v238.933zM494.933 482.133h-170.667v170.667h170.667v-170.667zM887.467 686.933h-273.067c-9.438 0-17.067-7.629-17.067-17.067s7.629-17.067 17.067-17.067h273.067c9.438 0 17.067 7.629 17.067 17.067s-7.629 17.067-17.067 17.067zM887.467 584.533h-273.067c-9.438 0-17.067-7.629-17.067-17.067s7.629-17.067 17.067-17.067h273.067c9.438 0 17.067 7.629 17.067 17.067s-7.629 17.067-17.067 17.067zM887.467 482.133h-273.067c-9.438 0-17.067-7.629-17.067-17.067s7.629-17.067 17.067-17.067h273.067c9.438 0 17.067 7.629 17.067 17.067s-7.629 17.067-17.067 17.067zM887.467 379.733h-563.2c-9.438 0-17.067-7.629-17.067-17.067s7.629-17.067 17.067-17.067h563.2c9.438 0 17.067 7.629 17.067 17.067s-7.629 17.067-17.067 17.067zM580.267 277.333h-256c-9.438 0-17.067-7.629-17.067-17.067s7.629-17.067 17.067-17.067h256c9.438 0 17.067 7.629 17.067 17.067s-7.629 17.067-17.067 17.067zM580.267 174.933h-256c-9.438 0-17.067-7.629-17.067-17.067s7.629-17.067 17.067-17.067h256c9.438 0 17.067 7.629 17.067 17.067s-7.629 17.067-17.067 17.067zM580.267 72.533h-256c-9.438 0-17.067-7.629-17.067-17.067s7.629-17.067 17.067-17.067h256c9.438 0 17.067 7.629 17.067 17.067s-7.629 17.067-17.067 17.067zM665.6 38.4h238.933v238.933h-238.933v-238.933zM699.733 243.2h170.667v-170.667h-170.667v170.667zM1006.933 738.133c0 0.29-0.154 0.529-0.171 0.819v221.047h-819.029v-512h-170.667v-409.6c0-56.474 45.926-102.4 102.4-102.4h785.067c56.371 0 102.229 45.875 102.229 102.229v699.085c0.017 0.29 0.171 0.529 0.171 0.819zM972.629 925.867v-170.667h-750.763v170.667h750.763zM51.2 38.4v375.467h136.533v-375.467c0-37.649-30.618-68.267-68.267-68.267s-68.267 30.618-68.267 68.267zM904.533-29.867h-708.796c0.273 0.307 0.461 0.666 0.717 0.973 3.482 3.977 6.656 8.226 9.489 12.715 0.461 0.717 0.887 1.434 1.331 2.185 2.765 4.608 5.205 9.421 7.219 14.473 0.273 0.7 0.512 1.399 0.768 2.099 1.963 5.222 3.567 10.615 4.659 16.196 0.102 0.512 0.137 1.041 0.239 1.536 1.058 5.871 1.707 11.913 1.707 18.091v682.667h750.763v-682.837c0-37.547-30.549-68.096-68.096-68.096zM802.133 891.733h-409.6v-102.4h409.6v102.4zM768 823.467h-341.333v34.133h341.333v-34.133z" />
<glyph unicode="&#xe928;" glyph-name="delivered" d="M982.733 578.739h-493.317v304.336c0 22.325-18.163 40.489-40.487 40.489h-129.475c-19.664 18.167-45.924 29.293-74.745 29.293s-55.081-11.126-74.745-29.293h-129.475c-22.327 0-40.489-18.165-40.489-40.489v-555.199c0-22.325 18.163-40.489 40.489-40.489h251.161v-302.975c0-22.755 18.514-41.267 41.269-41.267h649.814c22.755 0 41.269 18.512 41.269 41.267v553.065c-0.002 22.753-18.514 41.263-41.269 41.263zM567.689 529.471h180.278v-314.241l-81.623 30.068c-5.494 2.024-11.535 2.024-17.029 0l-81.623-30.068v314.241zM244.709 903.589c32.512 0 59.159-25.572 60.901-57.658h-121.802c1.739 32.088 28.389 57.658 60.901 57.658zM49.267 874.296h89.845c-2.716-9.025-4.286-18.535-4.582-28.363h-47.965c-13.604 0-24.634-11.029-24.634-24.634s11.029-24.634 24.634-24.634h316.288c13.604 0 24.634 11.029 24.634 24.634s-11.029 24.634-24.634 24.634h-47.967c-0.296 9.828-1.868 19.339-4.582 28.363h89.845v-537.643h-390.881v537.643zM974.733-7.589h-633.815v294.975h108.009c22.325 0 40.487 18.163 40.487 40.489v201.598h29.006v-349.57c0-8.054 3.937-15.598 10.543-20.206 4.19-2.922 9.119-4.428 14.093-4.428 2.866 0 5.749 0.499 8.513 1.519l106.257 39.142 106.257-39.142c7.557-2.785 15.999-1.699 22.605 2.909s10.543 12.152 10.543 20.206v349.567h177.5v-537.060zM327.116 636.634l-120.007-120.007-44.812 44.812c-9.62 9.62-25.216 9.62-34.839 0-9.62-9.62-9.62-25.218 0-34.839l62.231-62.231c4.62-4.62 10.886-7.214 17.419-7.214s12.799 2.594 17.419 7.214l137.426 137.426c9.62 9.62 9.62 25.218 0 34.839s-25.216 9.62-34.839 0z" />
<glyph unicode="&#xe929;" glyph-name="comment" d="M486.392 704.23c-37.66 0-68.287-30.627-68.287-68.287s30.627-68.287 68.287-68.287 68.287 30.627 68.287 68.287-30.627 68.287-68.287 68.287zM486.392 601.8c-18.83 0-34.144 15.313-34.144 34.144s15.313 34.144 34.144 34.144 34.144-15.313 34.144-34.144-15.313-34.144-34.144-34.144zM674.182 704.23c-37.66 0-68.287-30.627-68.287-68.287s30.627-68.287 68.287-68.287 68.287 30.627 68.287 68.287-30.627 68.287-68.287 68.287zM674.182 601.8c-18.83 0-34.144 15.313-34.144 34.144s15.313 34.144 34.144 34.144 34.144-15.313 34.144-34.144-15.313-34.144-34.144-34.144zM861.972 704.23c-37.66 0-68.287-30.627-68.287-68.287s30.627-68.287 68.287-68.287 68.287 30.627 68.287 68.287-30.627 68.287-68.287 68.287zM861.972 601.8c-18.83 0-34.144 15.313-34.144 34.144s15.313 34.144 34.144 34.144 34.144-15.313 34.144-34.144-15.313-34.144-34.144-34.144zM665.646 960c-192.979 0-349.972-141.542-349.972-315.521 0-17.345 1.741-34.519 4.831-51.42-21.664 5.634-45.838 8.741-72.76 8.741-68.902 0-120.288-18.181-152.741-54.049-40.153-44.387-35.202-98.999-35.048-99.597v-46.708c-9.97-12.394-16.952-30.985-16.952-46.521v-60.537c0-18.813 8.451-36.346 22.91-48.177 13.982-52.462 47.221-84.437 62.329-96.763v-46.828c0-13.538-17.055-41.519-30.439-48.859l-71.292-45.582c-14.801-9.458-21.442-27.127-16.508-43.977 4.917-16.867 20.025-28.186 37.592-28.186h400.299c17.567 0 32.675 11.319 37.592 28.186 4.934 16.85-1.707 34.519-16.508 43.977l-72.316 46.179c-12.377 6.76-29.432 34.724-29.432 48.262v46.828c15.126 12.326 48.364 44.301 62.346 96.763 14.46 11.831 22.893 29.381 22.893 48.177v29.005c24.583 8.399 50.003 18.864 73.050 31.89 44.318-17.482 91.402-26.342 140.108-26.342 192.979 0 349.972 141.542 349.972 315.521s-156.975 315.538-349.955 315.538zM418.344 294.388c0-9.577-4.9-18.438-13.111-23.747l-5.821-3.773-1.554-6.76c-13.299-57.942-56.73-87.698-57.122-87.954l-7.648-5.053v-64.497c0-25.983 23.832-65.47 46.196-77.642l71.326-45.582c2.1-1.349 2.817-3.227 2.117-5.634-0.717-2.407-2.339-3.619-4.831-3.619h-400.299c-2.492 0-4.114 1.212-4.814 3.619-0.717 2.407 0 4.285 2.117 5.634l70.285 44.984c23.371 12.77 47.203 52.257 47.203 78.24v64.497l-7.648 5.053c-0.427 0.29-43.67 29.449-57.105 87.954l-1.554 6.76-5.821 3.773c-8.212 5.309-13.128 14.187-13.128 23.747v60.537c0 8.399 5.719 22.125 11.336 27.195l5.617 5.087-0.085 62.568c-0.034 0.41-3.449 42.509 26.649 75.423 25.744 28.168 68.509 42.458 127.082 42.458 32.163 0 59.854-4.422 82.457-13.128 9.168-27.81 22.552-54.476 40.033-79.247-0.273-3.005-0.683-5.787-1.007-8.724-7.375-68.151-24.361-118.7-48.535-142.908l-36.141-36.141 50.618 7.17c0.154 0.017 0.905 0.137 1.605 0.239 0.222 0.034 0.307 0.051 0.58 0.085 0.034 0 0.085 0.017 0.12 0.017 8.894 1.349 41.331 6.675 80.903 17.755v-18.386zM665.646 363.085c-35.356 0-69.755 5.122-102.653 15.245 39.402 24.908 39.504 27.503 39.436 36.568-0.051 5.975-3.261 11.609-8.382 14.648-7.46 4.456-17.038 2.544-22.245-4.183-6.999-5.343-33.666-22.415-56.405-36.448 0 0-0.017 0-0.017 0-27.008-16.321-59.017-28.698-88.79-37.951-3.261-1.024-6.504-1.997-9.697-2.936-2.663-0.785-5.275-1.519-7.87-2.253-2.97-0.837-5.941-1.673-8.826-2.441-2.561-0.683-5.036-1.297-7.512-1.929-2.8-0.717-5.651-1.451-8.331-2.1-1.861-0.444-3.551-0.819-5.343-1.246-2.851-0.666-5.787-1.366-8.451-1.946 21.476 42.219 30.541 98.009 34.28 142.584l0.546 6.402-3.824 5.173c-4.49 6.095-8.69 12.36-12.633 18.762-0.512 0.819-0.939 1.673-1.434 2.492-3.483 5.787-6.795 11.66-9.816 17.686-0.171 0.341-0.324 0.7-0.495 1.041-6.658 13.435-12.206 27.383-16.525 41.809l-0.546 1.81c-6.675 22.91-10.277 46.572-10.277 70.609-0.017 155.148 141.662 281.377 315.811 281.377s315.828-126.229 315.828-281.377-141.679-281.394-315.828-281.394z" />
<glyph unicode="&#xe92c;" glyph-name="duplicate" d="M394.667 789.333h-384v-853.333h640v615.019l-238.315 238.315h-17.685zM565.333 21.333h-469.333v682.667h213.333v-256h256v-426.667zM394.667 533.333v152.981l152.981-152.981h-152.981zM775.019 960h-401.685v-85.333h298.667v-256h256v-512h-192v-85.333h277.333v700.352l-238.315 238.315zM757.333 704v152.981l152.981-152.981h-152.981z" />
<glyph unicode="&#xe92d;" glyph-name="send" d="M980.214 956.62l-963.664-483.832c-9.724-4.882-16.042-14.646-16.51-25.514-0.468-10.87 4.982-21.142 14.25-26.842l225.712-138.9v-315.532c0-12.91 8.258-24.37 20.504-28.456 12.248-4.086 25.73 0.12 33.482 10.442l154.26 205.394 346.008-212.928c8.398-5.168 18.802-5.88 27.824-1.9 9.024 3.978 15.516 12.138 17.366 21.826l183.966 963.82c0.062 0.32 0.12 0.64 0.172 0.962 3.934 24.294-21.552 42.7-43.37 31.46zM268.428 334.484l-176.858 108.836 705.824 354.376-528.966-463.212zM299.996 55.896v226.484l496.892 435.122c-10.914-14.53-483.896-644.302-496.892-661.606zM788.66 14.34l-304.232 187.22 455.808 606.902-151.576-794.122z" />
<glyph unicode="&#xe92f;" glyph-name="star-highlight" d="M944.416 556.576c18.542 18.074 25.088 44.6 17.088 69.226-8.002 24.626-28.89 42.236-54.514 45.958l-224.060 32.558c-4.398 0.638-8.2 3.4-10.168 7.388l-100.202 203.030c-11.458 23.22-34.662 37.644-60.556 37.644s-49.098-14.424-60.556-37.644l-100.202-203.032c-1.97-3.986-5.77-6.748-10.17-7.388l-224.056-32.556c-25.624-3.722-46.51-21.332-54.514-45.958s-1.456-51.152 17.088-69.226l162.13-158.038c3.182-3.104 4.636-7.574 3.884-11.956l-38.274-223.152c-4.376-25.522 5.916-50.828 26.864-66.048 20.948-15.224 48.204-17.19 71.12-5.144l200.402 105.358c3.936 2.070 8.634 2.070 12.572 0l200.404-105.358c9.968-5.24 20.754-7.83 31.488-7.828 13.94 0 27.792 4.368 39.626 12.974 20.948 15.222 31.242 40.53 26.864 66.048l-38.274 223.152c-0.75 4.382 0.702 8.852 3.884 11.956l162.132 158.036zM725.158 377.448l38.274-223.156c1.28-7.468-3.33-11.726-5.372-13.208-2.044-1.48-7.52-4.554-14.224-1.026l-200.404 105.358c-9.838 5.17-20.63 7.758-31.424 7.758s-21.588-2.588-31.424-7.756l-200.402-105.356c-6.708-3.526-12.182-0.456-14.224 1.026s-6.654 5.74-5.372 13.208l38.274 223.152c3.758 21.91-3.5 44.254-19.422 59.772l-162.13 158.038c-5.426 5.292-4.198 11.446-3.416 13.846 0.778 2.402 3.404 8.104 10.902 9.192l224.054 32.558c21.998 3.196 41.008 17.004 50.848 36.942l100.202 203.032c3.354 6.794 9.586 7.528 12.112 7.528 2.522 0 8.754-0.732 12.11-7.528v-0.002l100.202-203.032c9.838-19.938 28.846-33.746 50.844-36.942l224.058-32.558c7.498-1.088 10.122-6.79 10.902-9.192s2.010-8.558-3.418-13.846l-162.13-158.038c-15.92-15.516-23.178-37.86-19.42-59.77zM827.566 914.75c-12.072 8.768-28.962 6.092-37.73-5.976l-28.674-39.464c-8.768-12.068-6.094-28.962 5.976-37.73 4.798-3.482 10.352-5.16 15.856-5.16 8.354 0 16.59 3.862 21.874 11.134l28.674 39.464c8.768 12.070 6.094 28.964-5.976 37.732zM262.72 869.47l-28.674 39.464c-8.766 12.064-25.658 14.74-37.73 5.976-12.068-8.768-14.744-25.662-5.976-37.73l28.674-39.464c5.286-7.278 13.522-11.138 21.878-11.138 5.506 0 11.062 1.678 15.854 5.162 12.068 8.766 14.744 25.66 5.974 37.73zM99.104 346.342c-4.61 14.186-19.848 21.952-34.038 17.342l-46.394-15.076c-14.19-4.61-21.952-19.852-17.342-34.038 3.708-11.418 14.298-18.674 25.684-18.674 2.766 0 5.58 0.43 8.354 1.332l46.394 15.076c14.188 4.61 21.952 19.848 17.342 34.038zM512.010 46.428c-14.918 0-27.012-12.094-27.012-27.012v-48.784c0-14.918 12.094-27.012 27.012-27.012s27.012 12.094 27.012 27.012v48.784c0 14.92-12.092 27.012-27.012 27.012zM1005.328 348.57l-46.394 15.076c-14.184 4.606-29.428-3.154-34.038-17.344s3.152-29.428 17.342-34.038l46.394-15.076c2.774-0.9 5.586-1.328 8.352-1.328 11.388 0 21.978 7.258 25.686 18.674 4.61 14.188-3.154 29.426-17.342 34.036z" />
<glyph unicode="&#xe930;" glyph-name="money" d="M1005.392 94.956c-14.464 120.134-52.184 223.206-115.32 315.11-54.49 79.322-129.976 152.568-230.406 223.562h-287.544c-101.862-71.884-178.534-145.006-234.030-223.188-66.042-93.034-105.122-196.232-119.48-315.486l-18.612-154.564h1024l-18.608 154.566zM505.6 324.562h12.796c49.186 0 89.204-40.016 89.204-89.202 0-41.096-27.944-75.77-65.822-86.070v-67.48h-59.554v67.478c-37.88 10.3-65.822 44.974-65.822 86.070h59.554c0-16.348 13.298-29.648 29.648-29.648h12.796c16.348 0 29.65 13.3 29.65 29.648s-13.3 29.648-29.65 29.648h-12.796c-49.186 0-89.202 40.016-89.202 89.202 0 41.096 27.944 75.77 65.822 86.070v67.478h59.554v-67.48c37.88-10.3 65.822-44.974 65.822-86.072h-59.554c0 16.348-13.3 29.648-29.65 29.648h-12.796c-16.348 0-29.648-13.3-29.648-29.648 0.004-16.342 13.302-29.642 29.648-29.642zM691.332 923.648c-12.136 0.008-16.518 3.202-26.118 10.202-12.51 9.118-29.642 21.604-61.152 21.628-0.032 0-0.060 0-0.092 0-31.452 0-48.584-12.444-61.092-21.534-9.598-6.974-13.988-10.162-26.082-10.162-0.018 0-0.038 0-0.054 0-12.14 0.010-16.522 3.204-26.126 10.202-12.51 9.118-29.642 21.602-61.154 21.628-0.034 0-0.060 0-0.094 0-31.45 0-48.586-12.444-61.096-21.532-9.6-6.974-13.99-10.162-26.088-10.162-0.018 0-0.038 0-0.054 0l-42.968 0.034 73.864-228.392v-2.376h285.858v2.376l75.78 228.056-43.332 0.032z" />
<glyph unicode="&#xe931;" glyph-name="ship" d="M1021.201 563.868l-94.277 177.623c-3.199 6.025-8.649 10.171-14.824 11.873-0.042 0.010-0.067 0.025-0.111 0.038l-392.753 106.014c-4.083 1.099-8.386 1.105-12.472 0.008l-394.728-106.014c-0.044-0.013-0.073-0.027-0.119-0.040-6.186-1.698-11.644-5.848-14.845-11.879l-94.275-177.623c-3.072-5.789-3.641-12.584-1.577-18.803s6.586-11.324 12.511-14.123l82.026-38.774v-242.64c0-9.206 5.268-17.6 13.56-21.598l393.243-189.788c3.303-1.595 6.868-2.384 10.421-2.384 3.527 0 7.032 0.811 10.275 2.35 0.052 0.013 0.102 0.010 0.15 0.035l393.243 189.788c8.292 4 13.56 12.392 13.56 21.598v242.617c0 0.313-0.035 0.619-0.046 0.928l80.101 37.865c5.925 2.801 10.446 7.904 12.511 14.123 2.063 6.223 1.493 13.014-1.579 18.805zM512.97 811.424l314.055-84.771-315.025-116.753-314.875 116.694 315.845 84.829zM129.604 700.465l350.145-129.769-77.117-170.537-345.684 163.41 72.656 136.895zM143.727 264.583v204.908l260.457-123.12c3.237-1.531 6.74-2.302 10.25-2.302 2.797 0 5.6 0.488 8.275 1.472 6.038 2.219 10.928 6.77 13.579 12.63l52.714 116.573v-376.801l-345.276 166.639zM882.244 264.583l-345.276-166.639v372.44l50.743-112.212c2.651-5.86 7.541-10.409 13.579-12.63 2.676-0.984 5.479-1.472 8.275-1.472 3.512 0 7.014 0.77 10.25 2.302l262.428 124.052v-205.841zM621.368 400.162l-77.119 170.537 350.145 129.769 72.658-136.895-345.684-163.41z" />
<glyph unicode="&#xe932;" glyph-name="settings" d="M971.585 534.159l-71.874 12.193c-7.487 24.172-17.113 47.488-28.878 69.735l42.354 59.253c17.969 25.242 15.188 59.681-6.845 81.5l-63.746 63.746c-11.979 11.979-27.808 18.61-44.707 18.61-13.263 0-25.883-4.064-36.579-11.765l-59.467-42.354c-23.102 12.193-47.274 22.247-72.302 29.734l-11.979 71.019c-5.134 30.589-31.445 52.836-62.462 52.836h-90.057c-31.017 0-57.328-22.247-62.462-52.836l-12.407-72.73c-23.958-7.487-47.274-17.327-69.521-29.306l-58.826 42.354c-10.696 7.701-23.53 11.765-36.793 11.765-16.899 0-32.942-6.631-44.707-18.61l-63.959-63.746c-21.819-21.819-24.814-56.259-6.845-81.5l42.782-60.109c-11.765-22.461-21.177-45.777-28.45-69.949l-71.019-11.979c-30.589-5.134-52.836-31.445-52.836-62.462v-90.057c0-31.017 22.247-57.328 52.836-62.462l72.73-12.407c7.487-23.958 17.327-47.274 29.306-69.521l-42.141-58.612c-17.969-25.242-15.188-59.681 6.845-81.5l63.746-63.746c11.979-11.979 27.808-18.61 44.707-18.61 13.263 0 25.883 4.064 36.579 11.765l60.109 42.782c21.605-11.337 44.28-20.535 67.596-27.808l11.979-71.874c5.134-30.589 31.445-52.836 62.462-52.836h90.271c31.017 0 57.328 22.247 62.462 52.836l12.193 71.874c24.172 7.487 47.488 17.113 69.735 28.878l59.253-42.354c10.696-7.701 23.53-11.765 36.793-11.765v0c16.899 0 32.728 6.631 44.707 18.61l63.746 63.746c21.819 21.819 24.814 56.259 6.845 81.5l-42.354 59.467c11.765 22.461 21.605 45.777 28.878 69.735l71.874 11.979c30.589 5.134 52.836 31.445 52.836 62.462v90.057c0.428 31.017-21.819 57.328-52.408 62.462zM966.665 381.64c0-2.781-1.925-5.134-4.706-5.562l-89.843-14.974c-11.337-1.925-20.322-10.268-23.102-21.177-8.129-31.445-20.535-61.606-37.221-89.629-5.776-9.84-5.348-22.033 1.283-31.445l52.836-74.441c1.497-2.139 1.283-5.348-0.642-7.273l-63.746-63.746c-1.497-1.497-2.995-1.711-4.064-1.711-1.283 0-2.353 0.428-3.209 1.070l-74.227 52.836c-9.198 6.631-21.605 7.059-31.445 1.283-28.022-16.685-58.184-29.092-89.629-37.221-11.123-2.781-19.466-11.979-21.177-23.102l-15.188-89.843c-0.428-2.781-2.781-4.706-5.562-4.706h-90.057c-2.781 0-5.134 1.925-5.562 4.706l-14.974 89.843c-1.925 11.337-10.268 20.322-21.177 23.102-30.589 7.915-60.109 20.108-87.704 35.937-4.492 2.567-9.626 3.85-14.546 3.85-5.776 0-11.765-1.711-16.685-5.348l-74.869-53.264c-1.070-0.642-2.139-1.070-3.209-1.070-0.856 0-2.567 0.214-4.064 1.711l-63.746 63.746c-1.925 1.925-2.139 4.92-0.642 7.273l52.622 73.799c6.631 9.412 7.059 21.819 1.283 31.659-16.685 27.808-29.52 57.97-37.648 89.415-2.995 10.909-11.979 19.252-23.102 21.177l-90.484 15.402c-2.781 0.428-4.706 2.781-4.706 5.562v90.057c0 2.781 1.925 5.134 4.706 5.562l89.201 14.974c11.337 1.925 20.535 10.268 23.316 21.391 7.915 31.445 20.108 61.82 36.579 89.843 5.776 9.84 5.134 22.033-1.497 31.231l-53.264 74.869c-1.497 2.139-1.283 5.348 0.642 7.273l63.746 63.746c1.497 1.497 2.995 1.711 4.064 1.711 1.283 0 2.353-0.428 3.209-1.070l73.799-52.622c9.412-6.631 21.819-7.059 31.659-1.283 27.808 16.685 57.97 29.52 89.415 37.648 10.909 2.995 19.252 11.979 21.177 23.102l15.402 90.484c0.428 2.781 2.781 4.706 5.562 4.706h90.057c2.781 0 5.134-1.925 5.562-4.706l14.974-89.201c1.925-11.337 10.268-20.535 21.391-23.316 32.301-8.129 63.104-20.749 91.768-37.648 9.84-5.776 22.033-5.348 31.445 1.283l73.799 53.050c1.070 0.642 2.139 1.070 3.209 1.070 0.856 0 2.567-0.214 4.064-1.711l63.746-63.746c1.925-1.925 2.139-4.92 0.642-7.273l-52.836-74.227c-6.631-9.198-7.059-21.605-1.283-31.445 16.685-28.022 29.092-58.184 37.221-89.629 2.781-11.123 11.979-19.466 23.102-21.177l89.843-15.188c2.781-0.428 4.706-2.781 4.706-5.562v-90.057h-0.214zM512.104 647.745c-121.929 0-220.97-99.041-220.97-220.97s99.041-220.97 220.97-220.97 220.97 99.041 220.97 220.97-99.041 220.97-220.97 220.97zM512.104 263.561c-90.057 0-163.214 73.158-163.214 163.214s73.158 163.214 163.214 163.214 163.214-73.158 163.214-163.214-73.158-163.214-163.214-163.214z" />
<glyph unicode="&#xe933;" glyph-name="help" d="M536.096 697.725c-36.142 12.046-78.304 0-108.423-24.092s-48.188-60.235-48.188-102.4c0-18.069 12.046-30.119 30.119-30.119 18.069 0 30.119 12.046 30.119 30.119 0 18.069 6.023 42.165 24.092 54.212s36.142 18.069 60.235 12.046c30.119-6.023 48.188-30.119 54.212-54.212 6.023-30.119 0-54.212-24.092-72.284-48.188-36.142-72.284-90.354-72.284-144.565 0-18.069 12.046-30.119 30.119-30.119 18.069 0 30.119 12.046 24.092 30.119 0 36.142 24.092 72.284 54.212 96.377 42.165 36.142 60.235 84.331 48.188 132.519-12.050 54.212-54.212 90.354-102.4 102.4zM487.908 209.817c-6.023-6.023-6.023-18.069-6.023-24.092s0-12.046 6.023-18.069c6.023-6.023 18.069-12.046 24.092-12.046s18.069 6.023 18.069 12.046c6.023 0 12.046 12.046 12.046 18.069 0 12.046-6.023 18.069-12.046 24.092-12.046 12.050-30.116 12.050-42.162 0zM512 938.667c-283.108 0-512-228.892-512-512s228.892-512 512-512 512 228.892 512 512-228.892 512-512 512zM512-25.098c-246.965 0-451.765 204.8-451.765 451.765s204.8 451.765 451.765 451.765 451.765-204.8 451.765-451.765-204.8-451.765-451.765-451.765z" />
<glyph unicode="&#xe934;" glyph-name="conversation" d="M477.323 47.892l-59.998 239.988c-3.654 14.596-10.742 27.58-20.256 38.206 14.252 15.926 22.94 36.934 22.94 59.942 0 49.622-40.37 89.992-89.992 89.992h-64.364l-35.12 70.236c-0.13 0.258-0.274 0.504-0.404 0.762 41.206 19.018 69.89 60.704 69.89 108.988 0 66.162-53.828 119.99-119.99 119.99s-119.99-53.828-119.99-119.99c0-31.37 12.116-59.954 31.894-81.356-13.914-11.758-24.432-27.806-29.212-46.798l-59.996-239.978c-6.766-27.062-0.794-55.202 16.382-77.206 9.286-11.894 21.12-21.016 34.43-26.914l-52.6-210.416c-4.018-16.072 5.754-32.36 21.828-36.376 16.072-4.018 32.36 5.756 36.378 21.826l24.316 97.268h206.288l12.958-51.848c12.168-48.574 61.194-77.518 109.136-65.462 48.126 12.020 77.5 60.976 65.482 109.146zM180.026 716.004c33.082 0 59.996-26.914 59.996-59.994s-26.914-59.996-59.996-59.996-59.996 26.914-59.996 59.996 26.914 59.994 59.996 59.994zM98.454 116.052l14.998 59.994h146.298l14.996-59.994h-176.292zM397.255-3.058c-15.754-3.966-32.244 5.444-36.35 21.832l-48.628 194.544c-3.338 13.354-15.336 22.724-29.102 22.724h-193.14c-9.292 0-17.908 4.208-23.636 11.546-5.73 7.342-7.724 16.722-5.47 25.738l59.986 239.936c6.79 26.986 43.574 30.918 55.954 6.172 0.010-0.020 0.022-0.036 0.032-0.056l43.382-86.764c5.082-10.164 15.468-16.582 26.832-16.582h82.904c16.54 0 29.998-13.456 29.998-29.998s-13.456-29.998-29.998-29.998c-14.836 0-106.982 0-119.99 0-11.442 0-21.724 6.354-26.836 16.578-7.41 14.816-25.43 20.824-40.246 13.414-14.818-7.41-20.824-25.428-13.414-40.246 15.34-30.684 46.186-49.744 80.498-49.744 13.010 0 105.178 0 119.99 0 13.79 0 25.76-9.344 29.106-22.714l59.994-239.968c4.004-16.068-5.782-32.398-21.866-36.414zM970.466 183.758c38.702 17.15 61.76 60.304 50.808 104.118l-60.006 240.024c-4.774 18.974-15.286 35.010-29.194 46.76 19.774 21.4 31.888 49.982 31.888 81.35 0 66.162-53.828 119.99-119.99 119.99s-119.99-53.828-119.99-119.99c0-48.282 28.682-89.968 69.888-108.988-0.13-0.254-0.272-0.496-0.4-0.75l-35.124-70.246h-64.362c-49.622 0-89.992-40.37-89.992-89.992 0-23.006 8.688-44.012 22.942-59.942-9.518-10.63-16.604-23.614-20.258-38.214l-59.998-239.992c-12.016-48.156 17.358-97.114 65.436-109.122 47.626-11.98 96.932 16.556 109.188 65.466l12.954 51.832h206.288l24.316-97.268c4.020-16.076 20.308-25.844 36.376-21.826 16.072 4.018 25.846 20.304 21.828 36.378l-52.598 210.412zM783.976 656.009c0 33.082 26.914 59.994 59.994 59.994 33.082 0 59.996-26.914 59.996-59.994s-26.914-59.996-59.996-59.996c-33.080 0-59.994 26.914-59.994 59.996zM749.249 116.052l14.996 59.994h146.298l14.998-59.994h-176.292zM933.964 236.043h-193.138c-13.764 0-25.764-9.37-29.102-22.724l-48.624-194.528c-4.126-16.462-20.642-25.8-36.402-21.836-16.036 4.006-25.822 20.334-21.816 36.39l59.994 239.972c3.348 13.376 15.318 22.722 29.108 22.722 14.836 0 106.982 0 119.99 0 34.312 0 65.156 19.060 80.498 49.744 7.41 14.818 1.402 32.838-13.414 40.246s-32.838 1.402-40.246-13.414c-5.114-10.228-15.396-16.578-26.836-16.578-13.010 0-105.178 0-119.99 0-16.54 0-29.998 13.456-29.998 29.998s13.456 29.998 29.998 29.998h82.904c11.364 0 21.748 6.42 26.832 16.582 1.266 2.534 42.66 85.328 43.414 86.822 12.562 25.112 49.252 20.47 55.944-6.128l59.996-239.98c4.72-18.912-9.598-37.286-29.112-37.286zM633.987 959.984h-243.98c-49.622 0-89.992-40.37-89.992-89.992v-63.994c0-49.622 40.37-89.992 89.992-89.992h109.71l113.234-111.378c8.618-8.476 21.478-10.952 32.63-6.28 11.15 4.672 18.404 15.578 18.404 27.666v95.132c34.92 12.38 59.996 45.742 59.996 84.854v63.992c0 49.622-40.372 89.992-89.994 89.992zM663.985 805.996c0-16.54-13.456-29.998-29.998-29.998-16.568 0-29.998-13.428-29.998-29.998v-48.408l-70.956 69.794c-5.612 5.52-13.164 8.612-21.036 8.612h-121.99c-16.54 0-29.998 13.456-29.998 29.998v63.996c0 16.54 13.456 29.998 29.998 29.998h243.98c16.54 0 29.998-13.456 29.998-29.998v-63.996z" />
<glyph unicode="&#xe935;" glyph-name="details" d="M282.745 791.882c0-25.218 20.633-45.851 45.851-45.851h649.551c25.218 0 45.851 20.633 45.851 45.851s-20.633 45.851-45.851 45.851h-649.551c-25.218 0-45.851-20.633-45.851-45.851zM328.596 402.151h649.551c25.218 0 45.851 20.633 45.851 45.851s-20.633 45.851-45.851 45.851h-649.551c-25.218 0-45.851-20.633-45.851-45.851s20.633-45.851 45.851-45.851zM328.596 58.27h649.551c25.218 0 45.851 20.633 45.851 45.851s-20.633 45.851-45.851 45.851h-649.551c-25.218 0-45.851-20.633-45.851-45.851s20.633-45.851 45.851-45.851zM45.851 746.031h76.417c25.218 0 45.851 20.633 45.851 45.851s-20.633 45.851-45.851 45.851h-76.417c-25.218 0-45.851-20.633-45.851-45.851s20.633-45.851 45.851-45.851zM45.851 402.151h76.417c25.218 0 45.851 20.633 45.851 45.851s-20.633 45.851-45.851 45.851h-76.417c-25.218 0-45.851-20.633-45.851-45.851s20.633-45.851 45.851-45.851zM45.851 58.27h76.417c25.218 0 45.851 20.633 45.851 45.851s-20.633 45.851-45.851 45.851h-76.417c-25.218 0-45.851-20.633-45.851-45.851s20.633-45.851 45.851-45.851z" />
<glyph unicode="&#xe937;" glyph-name="download" horiz-adv-x="1365" d="M526.22 155.821h317.337v-48h-317.337v48zM708.889 635.035v-339.594h-48v339.594h48zM596.634 413.513l121.428-121.428-33.941-33.941-121.428 121.428 33.941 33.941zM650.831 292.793l121.428 121.428 33.941-33.941-121.428-121.428-33.941 33.941z" />
<glyph unicode="&#xe938;" glyph-name="information" d="M626.729 745.214c-19.83 22.3-50.754 35.090-84.844 35.090-60.882 0-115.302-41.568-121.318-92.72-2.698-23.396 4.562-46.094 20.442-63.91 19.512-21.892 50.16-34.446 84.096-34.446 62.46 0 116.080 40.73 122.072 92.666 2.7 22.968-4.56 45.454-20.448 63.32zM598.351 687.587c-3.074-26.67-36.62-49.2-73.25-49.2-19.636 0-37.356 6.726-47.398 17.996-6.614 7.42-9.406 16.022-8.312 25.516 3.086 26.236 36.96 49.252 72.492 49.252 19.772 0 37.758-6.954 48.116-18.598 4.548-5.114 9.692-13.588 8.352-24.966zM603.503 221.035c-6.144 4.122-20.524 13.766-8.916 80.726 0.298 1.46 1.464 6.858 3.274 15.246 4.122 19.114 11.794 54.688 20.132 94.358 0.020 0.088 0.040 0.18 0.056 0.268 8.512 42.874 1.774 80.38-19.474 108.466-19.182 25.356-49.552 40.9-85.508 43.764-53.172 4.254-108.796-27.478-125.836-58.714-7.878-13.84-4.106-25.080-1.136-30.578 3.68-6.8 9.048-10.612 12.97-13.394 6.042-4.288 20.186-14.326 6.754-81.146-1.256-6.112-19.998-101.402-22.476-114.93-0.018-0.090-0.032-0.182-0.050-0.272-7.384-43.080-0.082-80.73 22.304-107.918 36.048-43.78 90.916-41.678 93.064-41.678 51.138 0.002 102.256 31.764 117.82 62.158 7.514 14.042 3.454 25.178 0.334 30.596-3.85 6.7-9.32 10.37-13.312 13.048zM569.851 421.329c-8.298-39.484-15.938-74.914-20.046-93.958-2.794-12.948-3.358-15.578-3.558-16.656-0.014-0.086-0.032-0.174-0.046-0.264-12.48-71.728 0.15-103.12 18.026-120.682-4.884-4.358-11.574-9.064-19.856-13.336-16.288-8.404-34.33-12.75-49.524-11.948-22.134 1.182-39.716 9.168-50.836 23.098-12.95 16.216-17.2 40.006-12.292 68.798 2.672 14.558 21.44 109.872 22.228 113.664 0.014 0.084 0.032 0.164 0.050 0.248 14.356 71.376 2.548 103.088-14.86 121.112 4.996 4.228 11.81 8.758 20.2 12.81 16.502 7.97 34.664 11.848 49.822 10.644 22.096-1.76 39.458-10.204 50.212-24.42 12.522-16.55 16.148-40.448 10.48-69.11zM919.226 170.080c67.662 81.196 104.776 181.496 104.776 283.927 0 125.55-53.556 243.454-150.794 331.995-96.598 87.954-224.876 136.394-361.205 136.394s-264.611-48.44-361.209-136.396c-97.242-88.538-150.794-206.446-150.794-331.995s53.552-243.458 150.792-331.995c96.598-87.956 224.876-136.394 361.205-136.394 85.25 0 169.268 19.46 243.738 56.374l178.44-66.824c2.804-1.050 5.72-1.56 8.614-1.56 6.078 0 12.056 2.254 16.678 6.518 6.818 6.294 9.51 15.892 6.96 24.814l-47.2 165.142zM762.849 91.814c-6.538 2.45-13.808 2-20.002-1.232-69.88-36.512-149.706-55.812-230.848-55.812-255.212 0-462.843 188.066-462.843 419.233s207.63 419.239 462.841 419.239 462.845-188.068 462.845-419.233c0-96.19-35.030-186.68-101.304-261.691-5.552-6.282-7.518-14.966-5.212-23.026l37.44-130.996-142.918 53.518z" />
<glyph unicode="&#xe939;" glyph-name="files" d="M855.138 960h-545.868c-39.882 0-72.333-32.451-72.333-72.333v-86.82h-68.075c-39.882 0-72.333-32.446-72.333-72.333v-720.182c0-39.882 32.451-72.333 72.333-72.333h545.864c39.882 0 72.333 32.451 72.333 72.333v86.816h68.080c39.882 0 72.333 32.451 72.333 72.333v720.186c0 39.882-32.446 72.333-72.333 72.333zM725.059 8.333c0-5.601-4.733-10.333-10.333-10.333h-545.864c-5.601 0-10.333 4.733-10.333 10.333v720.182c0 5.605 4.733 10.333 10.333 10.333h545.864c5.601 0 10.333-4.728 10.333-10.333v-720.182zM865.471 167.481c0-5.601-4.733-10.333-10.333-10.333h-68.080v571.367c0 39.886-32.451 72.333-72.333 72.333h-415.789v86.82c0 5.601 4.728 10.333 10.333 10.333h545.868c5.601 0 10.333-4.733 10.333-10.333v-720.186zM618.147 641.236h-352.707c-17.124 0-31-13.875-31-31s13.875-31 31-31h352.707c17.124 0 31 13.875 31 31 0 17.12-13.875 31-31 31zM618.147 501.625h-352.707c-17.124 0-31-13.875-31-31s13.875-31 31-31h352.707c17.124 0 31 13.875 31 31s-13.875 31-31 31zM618.147 362.011h-352.707c-17.124 0-31-13.875-31-31s13.875-31 31-31h352.707c17.124 0 31 13.875 31 31s-13.875 31-31 31zM618.147 222.4h-352.707c-17.124 0-31-13.875-31-31s13.875-31 31-31h352.707c17.124 0 31 13.875 31 31 0 17.12-13.875 31-31 31z" />
<glyph unicode="&#xe93a;" glyph-name="logout" d="M661.334 192h-42.666c-11.782 0-21.334-9.552-21.334-21.334v-149.334h-512v853.334h512v-149.334c0-11.782 9.552-21.334 21.334-21.334h42.666c11.782 0 21.334 9.552 21.334 21.334v149.334c-0.002 47.128-38.206 85.334-85.334 85.334h-512c-47.128 0-85.334-38.206-85.334-85.334v-853.334c0-47.128 38.206-85.332 85.334-85.332h512c47.128 0 85.334 38.204 85.334 85.334v149.334c-0.002 11.78-9.552 21.332-21.334 21.332zM1017.084 463.73l-256 234.666c-6.25 5.688-15.312 7.25-23 3.792-7.75-3.396-12.75-11.062-12.75-19.52v-42.668c0-6.042 2.562-11.812 7.062-15.854l148.302-133.48h-603.364c-11.792 0-21.334-9.542-21.334-21.334v-42.666c0-11.792 9.542-21.334 21.334-21.334h603.364l-148.302-133.48c-4.5-4.042-7.062-9.812-7.062-15.854v-42.666c0-8.458 5-16.126 12.75-19.52 2.75-1.23 5.688-1.812 8.584-1.812 5.23 0 10.396 1.938 14.416 5.604l256 234.666c4.416 4.042 6.916 9.75 6.916 15.73s-2.5 11.688-6.916 15.73z" />
<glyph unicode="&#xe93b;" glyph-name="tasks" d="M413.234 347.212c-11.714 11.718-30.71 11.718-42.426 0.002l-99.132-99.132-40.792 39.476c-11.908 11.522-30.898 11.21-42.42-0.696s-11.21-30.898 0.696-42.42l62-60c5.82-5.634 13.342-8.442 20.86-8.442 7.682 0 15.364 2.934 21.214 8.786l120 120c11.716 11.716 11.716 30.71 0 42.426zM413.234 527.212c-11.714 11.718-30.71 11.718-42.426 0.002l-99.132-99.132-40.792 39.476c-11.908 11.522-30.898 11.21-42.42-0.696s-11.21-30.898 0.696-42.42l62-60c5.82-5.634 13.342-8.442 20.86-8.442 7.682 0 15.364 2.934 21.214 8.786l120 120c11.716 11.716 11.716 30.71 0 42.426zM413.234 707.212c-11.714 11.718-30.71 11.718-42.426 0.002l-99.132-99.132-40.792 39.476c-11.908 11.522-30.898 11.21-42.42-0.696s-11.21-30.898 0.696-42.42l62-60c5.82-5.634 13.342-8.442 20.86-8.442 7.682 0 15.364 2.934 21.214 8.786l120 120c11.716 11.716 11.716 30.71 0 42.426zM997.662 647.214l-42.426 42.426c-35.174 35.174-92.104 35.176-127.278 0-14.77-14.77-29.094-29.094-43.934-43.934v100.294c0 7.636-3.010 15.31-8.554 20.98l-180 184c-5.628 5.76-13.564 9.020-21.448 9.020h-484c-16.568 0-30-13.432-30-30v-814h-30c-16.568 0-30-13.432-30-30v-60c0-49.626 40.374-90 90-90h604c49.626 0 90 40.374 90 90v280.294c8.422 8.422 203.724 203.724 213.64 213.64 35.088 35.090 35.088 92.188 0 127.28zM604.022 856.434l78.684-80.434h-78.684v80.434zM90.022-4c-16.542 0-30 13.458-30 30v30c16.642 0 516.534 0 544 0v-30c0-10.516 1.83-20.61 5.16-30h-519.16zM724.024 26h-0.002c0-16.542-13.458-30-30-30s-30 13.458-30 30v60c0 16.568-13.43 30-30 30h-514v784h424v-154c0-16.568 13.432-30 30-30h150v-130.294l-193.050-193.050c-3.736-3.736-6.756-8.994-8.020-14.47l-38.162-165.442c-2.324-10.078 0.706-20.644 8.020-27.956 7.328-7.328 17.898-10.34 27.956-8.020l165.442 38.162c5.444 1.256 10.704 4.252 14.47 8.020l23.346 23.346v-220.296zM569.248 311.95l50.722-50.722-65.932-15.208 15.21 65.93zM679.462 286.588l-84.852 84.854 212.132 212.132 84.852-84.854-212.132-212.132zM955.236 562.36l-21.214-21.214-84.854 84.854 21.214 21.214c11.724 11.724 30.698 11.726 42.426 0l42.426-42.426c11.698-11.698 11.698-30.73 0.002-42.428z" />
<glyph unicode="&#xe93c;" glyph-name="file-error" d="M180.066 553.567h422.268v-63.34h-422.268v63.34zM739.571 480.694v249.62l-229.684 229.686h-467.058v-939.546h467.708c49.781-52.013 119.852-84.454 197.364-84.454 150.682 0 273.271 122.589 273.271 273.271 0 139.969-105.784 255.675-241.601 271.423zM528.437 851.872l103.006-103.006h-103.006v103.006zM106.169 83.794v812.866h358.928v-211.134h211.134v-204.832c-61.035-7.077-115.999-34.335-158.027-74.921h-338.137v-63.34h289.283c-14.494-25.864-24.918-54.302-30.365-84.454h-258.918v-63.34h254.959c2.109-39.782 12.769-77.33 30.167-110.845h-359.023zM707.901-0.66c-115.756 0-209.931 94.174-209.931 209.931s94.174 209.928 209.931 209.928 209.931-94.174 209.931-209.928-94.174-209.931-209.931-209.931zM777.497 323.653l-69.596-69.596-69.596 69.596-44.788-44.788 69.596-69.596-69.596-69.594 44.788-44.788 69.596 69.596 69.596-69.596 44.788 44.788-69.596 69.594 69.596 69.596z" />
<glyph unicode="&#xe93d;" glyph-name="sample" d="M1020.739 479.525c0 154.36-215.236 432.646-239.15 463.083-6.522 10.87-19.567 17.392-32.611 17.392s-23.914-6.522-32.611-17.392c-4.348-6.522-106.531-141.316-173.927-276.111l-145.665 145.665 17.392 17.392c17.392 17.392 17.392 43.481 0 60.875s-43.481 17.392-60.875 0l-336.984-339.161c-17.392-17.392-17.392-43.481 0-60.875 8.697-8.697 19.567-13.045 30.437-13.045s21.742 4.348 28.264 13.045l17.392 17.392 508.739-508.739c39.134-41.309 93.487-63.048 150.013-63.048s110.879 21.742 154.36 65.223c69.57 69.57 80.442 180.449 30.437 263.066 54.355 56.528 84.792 132.623 84.792 215.238zM844.637 62.098c-26.089-23.914-56.526-36.959-91.312-36.959s-67.398 13.045-91.312 36.959l-506.564 508.739 180.449 182.624 167.405-169.58c-15.219-41.309-21.742-76.093-21.742-106.531 2.177-160.883 121.751-286.981 271.764-286.981 39.134 0 78.268 8.697 113.054 23.914 26.089-47.829 19.567-110.877-21.742-152.185zM875.076 320.815c-32.611-28.264-73.92-43.481-117.401-43.481h-2.175c-106.531 0-186.972 86.965-186.972 202.191 0 21.742 6.522 60.875 41.309 132.621 41.309 86.965 104.357 180.449 143.49 234.803 71.745-100.009 186.972-278.284 189.146-365.248-0.002-63.050-23.916-121.751-67.398-160.885z" />
<glyph unicode="&#xe93e;" glyph-name="search" d="M990 27.6l-235.6 235.6c58.4 71.2 93.6 162.4 93.6 261.8 0 228-185 413-413 413-228.2 0-413-185-413-413s184.8-413 413-413c99.4 0 190.4 35 261.6 93.4l235.6-235.4c16-16 41.8-16 57.8 0 16 15.8 16 41.8 0 57.6zM435 194.2c-182.6 0-331 148.4-331 330.8s148.4 331 331 331c182.4 0 331-148.6 331-331s-148.6-330.8-331-330.8z" />
<glyph unicode="&#xe93f;" glyph-name="tick" d="M1011.369 795.673c-16.798 16.671-44.084 16.671-60.882 0l-609.171-605.12-267.836 264.040c-16.798 16.671-44.084 16.671-60.882 0s-16.798-43.658 0-60.287l298.403-294.139c16.628-16.458 44.296-16.458 60.924 0l639.44 635.219c16.845 16.628 16.845 43.658 0.004 60.287-16.798 16.671 16.841-16.628 0 0z" />
<glyph unicode="&#xe940;" glyph-name="eye" d="M1015.709 471.722c-154.666 190.197-321.663 286.759-496.811 286.759-69.391 0-139.617-15.467-209.008-45.773-54.551-24.036-108.684-57.268-160.727-98.861-87.992-70.436-139.826-140.662-141.916-143.588-10.032-13.795-9.614-32.605 1.045-45.982 154.457-190.406 321.663-286.759 496.811-286.759 69.391 0 139.617 15.467 209.008 45.773 54.551 24.036 108.684 57.268 160.727 98.861 87.992 70.436 139.826 140.662 141.916 143.588 10.032 13.795 9.614 32.605-1.045 45.982zM826.139 339.629c-72.735-57.895-187.271-126.868-321.036-126.868-144.424 0-285.296 79.214-419.061 235.552 21.11 24.872 59.776 66.464 111.61 107.848 72.735 57.895 187.271 126.868 321.036 126.868 144.424 0 285.296-79.214 419.061-235.552-21.11-24.872-59.776-66.673-111.61-107.848zM650.572 485.517c-20.692 0-37.621-16.93-37.621-37.621 0-55.805-45.355-101.16-101.16-101.16s-101.16 45.355-101.16 101.16c0 55.805 45.355 101.16 101.16 101.16 20.692 0 37.621 16.93 37.621 37.621s-16.93 37.621-37.621 37.621c-97.398 0-176.403-79.214-176.403-176.403s79.005-176.403 176.403-176.403c97.398 0 176.403 79.214 176.403 176.403 0 20.692-16.93 37.621-37.621 37.621z" />
<glyph unicode="&#xe941;" glyph-name="nose" horiz-adv-x="585" d="M548.571 213.943c-14.629 58.514-58.514 109.714-80.457 124.343-14.629 7.314-21.943-7.314-29.257-14.629-7.314-14.629 7.314-21.943 7.314-21.943 7.314-7.314 36.571-36.571 43.886-87.771 7.314-7.314 7.314-21.943 7.314-29.257-7.314-14.629-7.314-29.257-29.257-36.571-7.314 0-21.943-7.314-51.2 7.314s-65.829 36.571-95.086 43.886c-43.886 14.629-87.771 14.629-109.714 7.314-21.943-14.629-36.571-21.943-36.571-36.571 0-7.314 0-21.943 14.629-29.257s43.886-7.314 58.514-7.314c43.886 7.314 102.4 7.314 138.971-7.314 14.629-7.314 29.257-7.314 51.2-14.629-7.314-7.314-21.943-7.314-29.257 0-43.886 7.314-87.771 7.314-117.029 7.314-14.629 0-73.143-7.314-117.029-7.314-36.571 7.314-51.2 14.629-58.514 21.943-14.629 7.314-21.943 21.943-36.571 43.886-14.629 36.571 7.314 87.771 7.314 87.771l29.257 65.829 87.771 146.286c117.029 190.171 153.6 270.629 153.6 270.629 7.314 14.629 14.629 36.571 21.943 51.2 0 7.314 0 29.257 0 36.571 0 21.943 0 43.886-7.314 58.514 0 7.314-7.314 7.314-21.943 7.314l-14.629-7.314c-7.314-7.314-7.314-7.314 0-29.257 0-21.943 0-36.571-7.314-65.829 0-14.629-58.514-109.714-80.457-146.286s-175.543-299.886-182.857-314.514c0-7.314-21.943-51.2-36.571-87.771-7.314-14.629-7.314-65.829 21.943-102.4 21.943-36.571 43.886-51.2 95.086-65.829 36.571-14.629 124.343 7.314 160.914 7.314 29.257 0 65.829-7.314 117.029-7.314 43.886-7.314 80.457 0 109.714 36.571 21.943 14.629 29.257 51.2 14.629 95.086z" />
<glyph unicode="&#xe942;" glyph-name="star-outline" d="M18.108 511.349c82.91-75.985 170.47-146.268 265.808-206.058-31.431-106.716-65.695-212.495-102.409-317.521-6.725-19.244 6.284-32.534 21.836-35.518 7.786-4.736 17.688-5.298 27.813 1.928 92.14 65.801 186.771 127.997 279.959 192.313 94.229-69.237 186.328-141.286 285.012-204.213 21.862-13.957 42.453 4.912 43.744 24.986 1.088 4.373 1.273 9.219-0.053 14.56-26.061 106.004-56.681 210.438-103.719 308.957 101.223 64.683 183.113 153.527 277.541 227.334 17.715 13.838 10.403 33.859-4.653 43.407-4.78 6.133-12.167 10.356-22.324 10.356h-317.972c-42.508 106.896-85.887 213.426-120.425 323.253-10.275 32.701-57.364 23.492-58.711-5.202-49.53-105.692-94.988-212.93-121.443-326.808-113.144 0.717-226.242 5.438-339.397 5.779-34.385 0.102-37.848-47.553-10.606-57.553zM382.738 503.451c2.621-0.011 5.028 0.312 7.285 0.819 13.17-1.905 26.801 4.070 30.328 21.022 20.294 97.361 55.252 189.308 95.461 279.545 31.647-90.205 67.79-178.742 103.015-267.651 0.108-0.284 0.282-0.494 0.409-0.77 2.144-12.75 11.567-24.042 28.281-24.042h266.481c-73.654-63.981-143.377-132.59-227.939-182.559-6.267-3.705-10.242-8.572-12.386-13.883-5.298-8.152-6.937-18.75-1.26-29.8 41.129-80.157 69.086-165.118 92.413-251.662-79.317 54.561-155.459 113.532-233.194 170.396-2.218 1.616-4.409 2.757-6.596 3.663-8.019 5.601-18.562 6.829-29.391-0.689-76.168-52.858-153.434-104.099-229.654-156.846 28.341 84.184 55.118 168.854 79.985 254.139 3.97 13.622-1.368 24.317-10.182 30.585-2.015 5.665-5.93 10.92-12.417 14.926-75.576 46.58-145.778 100.023-212.684 157.807 90.685-1.614 181.348-4.721 272.044-4.999z" />
<glyph unicode="&#xe943;" glyph-name="star" d="M536.206 898.823l130.254-308.288 333.466-28.647c23.128-1.997 32.537-30.855 14.981-46.046l-252.938-219.139 75.797-326.002c5.256-22.655-19.291-40.474-39.16-28.437l-286.579 172.831-286.579-172.831c-19.922-11.985-44.417 5.835-39.16 28.437l75.797 326.002-252.991 219.192c-17.556 15.191-8.2 44.049 14.981 46.046l333.466 28.647 130.254 308.236c9.041 21.446 39.37 21.446 48.411 0z" />
<glyph unicode="&#xe944;" glyph-name="speech-bubble" d="M844.469 917.899h-664.938c-98.995 0-179.531-80.539-179.531-179.534v-410.135c0-98.995 80.536-179.531 179.531-179.531l423.53-0.003 202.744-202.741c6.871-6.874 16.052-10.519 25.399-10.519 4.625 0 9.29 0.896 13.731 2.737 13.417 5.555 22.167 18.643 22.167 33.169v178.776c88.355 11.16 156.899 86.781 156.899 178.112v410.135c0 98.995-80.536 179.534-179.531 179.534zM952.188 328.226c0-59.398-48.321-107.719-107.719-107.719h-13.274c-19.829 0-35.906-16.080-35.906-35.906v-126.574l-151.964 151.964c-6.733 6.736-15.862 10.516-25.39 10.516h-438.404c-59.398 0-107.719 48.321-107.719 107.719v410.135c0 59.398 48.321 107.719 107.719 107.719h664.938c59.398 0 107.719-48.321 107.719-107.719v-410.135zM776.27 663.645h-528.54c-19.829 0-35.906-16.075-35.906-35.906 0-19.829 16.077-35.906 35.906-35.906h528.54c19.829 0 35.906 16.077 35.906 35.906 0 19.832-16.075 35.906-35.906 35.906zM776.27 462.57h-528.54c-19.829 0-35.906-16.075-35.906-35.906s16.077-35.906 35.906-35.906h528.54c19.829 0 35.906 16.077 35.906 35.906s-16.075 35.906-35.906 35.906z" />
<glyph unicode="&#xe946;" glyph-name="tube" d="M306 904.467l-271.2-271.2c-16.6-16.6-16.6-43.8 0-60.4s43.8-16.6 60.4 0l2.2 2.2 582.6-582.6c73.8-73.8 193.4-73.8 267 0 73.8 73.8 73.8 193.4 0 267l-582.6 582.4 2.2 2.2c16.6 16.6 16.6 43.8 0 60.4-16.8 16.8-43.8 16.8-60.6 0zM889.4 49.867c-41.8-41.8-110-41.8-151.8 0l-158.8 158.8 296.6 7 14-14c41.8-41.8 41.8-109.8 0-151.8zM796 295.067l-296.6-7-344.4 344.4 151.8 151.8 489.2-489.2z" />
<glyph unicode="&#xe947;" glyph-name="call" d="M208.66 257.981c101-120.733 222.581-215.791 361.349-283.053 52.834-25.038 123.491-54.743 202.211-59.836 4.88-0.212 9.548-0.424 14.429-0.424 52.834 0 95.271 18.248 129.857 55.804 0.212 0.212 0.637 0.637 0.849 1.061 12.307 14.853 26.311 28.22 40.952 42.437 9.973 9.548 20.157 19.521 29.918 29.706 45.195 47.105 45.195 106.941-0.424 152.56l-127.523 127.523c-21.643 22.492-47.529 34.374-74.689 34.374s-53.258-11.882-75.538-34.162l-75.962-75.962c-7.002 4.031-14.216 7.639-21.006 11.034-8.487 4.244-16.338 8.275-23.34 12.731-69.172 43.922-131.978 101.212-192.027 174.84-30.342 38.405-50.712 70.657-64.928 103.546 19.945 18.036 38.617 36.92 56.653 55.38 6.366 6.578 12.943 13.155 19.521 19.733 22.916 22.916 35.223 49.439 35.223 76.386s-12.094 53.47-35.223 76.386l-63.231 63.231c-7.426 7.426-14.429 14.641-21.643 22.067-14.004 14.429-28.645 29.281-43.073 42.649-21.855 21.431-47.529 32.676-74.689 32.676-26.947 0-52.834-11.246-75.538-32.889l-79.357-79.357c-28.857-28.857-45.195-63.867-48.59-104.395-4.031-50.712 5.305-104.607 29.494-169.747 37.132-100.787 93.149-194.361 176.325-294.299zM54.614 717.571c2.546 28.22 13.368 51.773 33.737 72.143l78.932 78.932c12.307 11.882 25.886 18.036 39.042 18.036 12.943 0 26.099-6.153 38.193-18.46 14.216-13.155 27.584-26.947 42.012-41.588 7.214-7.426 14.641-14.853 22.067-22.492l63.231-63.231c13.155-13.155 19.945-26.523 19.945-39.678s-6.79-26.523-19.945-39.678c-6.578-6.578-13.155-13.368-19.733-19.945-19.733-19.945-38.193-38.83-58.563-56.865-0.424-0.424-0.637-0.637-1.061-1.061-17.611-17.611-14.853-34.374-10.609-47.105 0.212-0.637 0.424-1.061 0.637-1.697 16.338-39.254 39.042-76.598 74.477-121.157 63.655-78.508 130.705-139.405 204.545-186.298 9.124-5.941 18.884-10.609 28.008-15.277 8.487-4.244 16.338-8.275 23.34-12.731 0.849-0.424 1.485-0.849 2.334-1.273 7.002-3.607 13.792-5.305 20.582-5.305 16.975 0 28.008 10.821 31.615 14.429l79.357 79.357c12.307 12.307 25.674 18.884 38.83 18.884 16.126 0 29.281-9.973 37.557-18.884l127.947-127.735c25.462-25.462 25.25-53.046-0.637-79.993-8.912-9.548-18.248-18.672-28.22-28.22-14.853-14.429-30.342-29.281-44.346-46.044-24.401-26.311-53.47-38.617-91.027-38.617-3.607 0-7.426 0.212-11.034 0.424-69.596 4.456-134.312 31.615-182.903 54.743-131.978 63.867-247.831 154.47-343.95 269.474-79.145 95.271-132.403 183.964-167.625 279.022-21.855 58.351-30.13 105.243-26.735 147.892z" />
<glyph unicode="&#xe948;" glyph-name="chat" d="M783.459 673.152c0-31.022-22.584-49.888-39.076-63.733-6.246-5.244-17.871-14.813-17.84-18.387 0.113-14.020-11.16-25.216-25.183-25.216-0.071 0-0.141 0-0.212 0-13.924 0-25.27 10.852-25.383 24.802-0.223 27.496 19.842 43.961 35.967 57.499 12.652 10.624 20.948 18.099 20.948 24.94 0 13.848-11.267 25.115-25.115 25.115-13.854 0-25.123-11.267-25.123-25.115 0-14.023-11.366-25.388-25.388-25.388s-25.388 11.366-25.388 25.388c0 41.846 34.046 75.892 75.894 75.892 41.851 0.003 75.897-33.947 75.897-75.796zM701.852 542.379c-14.023 0-24.827-11.366-24.827-25.388v-0.195c0-14.023 10.807-25.293 24.827-25.293s25.388 11.464 25.388 25.487-11.366 25.388-25.388 25.388zM190.109 365.526c-14.023 0-25.388-11.366-25.388-25.388s11.366-25.388 25.388-25.388h2.116c14.023 0 25.388 11.366 25.388 25.388s-11.366 25.388-25.388 25.388h-2.116zM278.345 365.526c-14.023 0-25.388-11.366-25.388-25.388s11.366-25.388 25.388-25.388h2.113c14.023 0 25.388 11.366 25.388 25.388s-11.366 25.388-25.388 25.388h-2.113zM1024 771.033v-285.764c0-67.66-54.252-122.564-121.912-122.564h-329.251c-6.437 0-11.738 0.037-16.172 0.13-4.646 0.096-9.876 0.133-11.916-0.093-2.124-1.41-7.332-6.181-12.35-10.804-1.989-1.831-4.24-3.845-6.669-6.062l-93.153-84.905c-7.43-6.779-18.424-8.533-27.625-4.477-9.202 4.059-15.662 13.171-15.662 23.228v269.165h-265.958c-39.668 0-72.554-32.506-72.554-72.168v-285.764c0-39.665 32.889-70.851 72.554-70.851h367.777c6.333 0 12.257-2.908 16.934-7.179l75.892-69.971v241.3c0 14.023 11.366 25.388 25.388 25.388s25.388-11.366 25.388-25.388v-298.844c0-10.057-5.755-19.033-14.959-23.092-3.292-1.453-6.598-2.025-10.059-2.025-6.217 0-12.35 2.553-17.12 6.908l-111.306 102.129h-357.935c-67.663 0-123.331 53.965-123.331 121.628v285.761c0 67.66 55.668 122.945 123.331 122.945h265.958v171.369c0 67.663 56.094 122.008 123.757 122.008h389.044c67.657 0 121.91-54.345 121.91-122.008zM973.223 771.033c0 39.665-31.473 71.231-71.136 71.231h-389.041c-39.665 0-72.98-31.566-72.98-71.231v-433.767l51.045 46.131c2.364 2.158 5.013 4.133 6.945 5.916 23.309 21.479 29.273 24.912 59.677 24.285 4.147-0.087 9.086-0.118 15.103-0.118h329.251c39.662 0 71.136 32.125 71.136 71.787v285.767z" />
<glyph unicode="&#xe949;" glyph-name="location" d="M511.785 938.667c-226.268 0-410.459-184.191-410.459-410.459 0-25.761 2.361-51.737 7.299-77.068 0.215-1.503 1.073-6.011 2.791-13.739 6.226-27.693 15.457-54.957 27.478-80.932 44.223-104.117 141.471-264.050 354.858-435.361 5.367-4.294 11.807-6.44 18.247-6.44s12.881 2.147 18.247 6.44c213.172 171.311 310.635 331.244 354.858 435.361 12.022 25.976 21.253 53.025 27.478 80.932 1.717 7.728 2.576 12.236 2.791 13.739 4.723 25.332 7.299 51.307 7.299 77.068-0.429 226.268-184.621 410.459-410.888 410.459zM857.842 461.23c0-0.429-0.215-0.859-0.215-1.288-0.215-1.073-0.859-4.294-1.932-9.231 0-0.215 0-0.215 0-0.429-5.367-24.044-13.31-47.443-23.829-69.984-0.215-0.215-0.215-0.644-0.429-0.859-40.144-95.101-128.161-240.221-319.651-398.437-191.49 158.216-279.507 303.336-319.651 398.437-0.215 0.215-0.215 0.644-0.429 0.859-10.304 22.326-18.247 45.94-23.829 69.984 0 0.215 0 0.215 0 0.429-1.288 4.938-1.717 8.158-1.932 9.231 0 0.429-0.215 0.859-0.215 1.503-4.294 22.112-6.44 44.438-6.44 66.979 0 194.281 158.216 352.496 352.496 352.496s352.496-158.216 352.496-352.496c0-22.756-2.147-45.296-6.44-67.193zM511.785 784.316c-143.618 0-260.616-116.998-260.616-260.616s116.998-260.616 260.616-260.616 260.616 116.998 260.616 260.616-116.998 260.616-260.616 260.616zM511.785 321.047c-111.846 0-202.653 91.022-202.653 202.653s91.022 202.653 202.653 202.653 202.653-91.022 202.653-202.653-90.808-202.653-202.653-202.653z" />
<glyph unicode="&#xe94a;" glyph-name="contacts" d="M872 756.667c-16.568 0-30-13.432-30-30v-600c0-16.568 13.432-30 30-30s30 13.432 30 30v600c0 16.568-13.432 30-30 30zM992 656.667c-16.568 0-30-13.432-30-30v-400c0-16.568 13.432-30 30-30s30 13.432 30 30v400c0 16.568-13.432 30-30 30zM632 938.667h-600c-16.568 0-30-13.432-30-30v-844c0-82.71 67.29-150 150-150h600c16.568 0 30 13.432 30 30v844c0 82.71-67.29 150-150 150zM722-25.333h-570c-49.626 0-90 40.374-90 90v814h570c49.626 0 90-40.374 90-90v-814zM392 746.667c-82.71 0-150-67.29-150-150s67.29-150 150-150 150 67.29 150 150-67.29 150-150 150zM392 506.667c-49.626 0-90 40.374-90 90s40.374 90 90 90 90-40.374 90-90-40.374-90-90-90zM620.462 146.153l-80.002 240c-4.084 12.25-15.548 20.514-28.46 20.514h-240c-12.912 0-24.376-8.264-28.46-20.514l-80-240c-3.048-9.148-1.516-19.206 4.124-27.028 5.636-7.824 14.694-12.458 24.336-12.458h400c9.642 0 18.7 4.634 24.338 12.458 5.638 7.822 7.172 17.878 4.124 27.028zM233.624 166.667l60 180h196.754l60-180h-316.754z" />
<glyph unicode="&#xe94b;" glyph-name="arrow-dropdown" d="M1013.768 663.696l-51.299 51.295c-6.836 6.85-14.71 10.264-23.612 10.264-8.88 0-16.751-3.414-23.587-10.264l-403.265-403.244-403.247 403.233c-6.839 6.85-14.71 10.264-23.601 10.264-8.895 0-16.765-3.414-23.601-10.264l-51.292-51.299c-6.85-6.836-10.264-14.706-10.264-23.601 0-8.888 3.425-16.758 10.264-23.594l478.14-478.151c6.836-6.839 14.71-10.257 23.601-10.257s16.751 3.418 23.583 10.257l478.18 478.151c6.836 6.839 10.232 14.71 10.232 23.594 0 8.895-3.396 16.765-10.232 23.615z" />
<glyph unicode="&#xe94c;" glyph-name="arrow-dropup" d="M10.232 189.638l51.299-51.295c6.836-6.85 14.71-10.264 23.612-10.264 8.88 0 16.751 3.414 23.587 10.264l403.265 403.244 403.247-403.233c6.839-6.85 14.71-10.264 23.601-10.264 8.895 0 16.765 3.414 23.601 10.264l51.292 51.299c6.85 6.836 10.264 14.706 10.264 23.601 0 8.888-3.425 16.758-10.264 23.594l-478.14 478.151c-6.836 6.839-14.71 10.257-23.601 10.257s-16.751-3.418-23.583-10.257l-478.18-478.151c-6.836-6.839-10.232-14.71-10.232-23.594 0-8.895 3.396-16.765 10.232-23.615z" />
<glyph unicode="&#xe950;" glyph-name="open" d="M1017.711 323.328l-180.951-342.465c-8.853-17.028-33.948-35.039-53.327-35.039l-725.655-0.133c-15.33 0-30.028 6.077-40.861 16.918-10.832 10.843-16.918 25.525-16.918 40.861l0.117 563.479c0 31.866 25.833 57.723 57.702 57.754l53.056 0.050v-49.223h-35.495c-6.947 0-13.62-2.757-18.536-7.673-4.911-4.916-7.673-11.584-7.673-18.536l0.052-528.218c0-14.489 11.741-26.209 26.214-26.209h36.352l171.492 346.915c9.689 19.379 27.997 35.041 47.349 35.041h419.989l0.143 139.61c27.423-2.543 49.067-25.29 49.067-53.363v-86.249h192.622c22.748-0.233 41.902-22.727 25.259-53.519zM144.334 169.524c-1.567 172.682 0 690.741 0 690.741 0 26.138 21.257 47.38 47.369 47.38h379.351c6.077 0 11.874-2.543 15.98-7.015l122.642-133.25c3.676-4.013 5.737-9.266 5.737-14.708v-345.193h-39.788v315.386c0 5.457-4.431 9.889-9.894 9.889h-93.87c-10.986 0-19.92 8.918-19.92 19.884v105.325c0 5.458-4.431 9.889-9.894 9.889h-350.32c-4.185 0-7.592-3.405-7.592-7.587v-647.307l-30.446-61.597c0.002 0.010-9.198 0.684-9.355 18.163zM591.771 772.527h59.096l-59.096 64.237v-64.237zM613.323 692.23h-366.634c-13.508 0-24.473-10.976-24.473-24.484 0-13.498 10.976-24.478 24.473-24.478h366.645c13.508 0 24.506 10.989 24.506 24.478-0.022 13.498-11.017 24.484-24.516 24.484zM637.817 525.18c0 13.498-10.984 24.463-24.494 24.463h-366.634c-13.508 0-24.473-10.986-24.473-24.463 0-13.498 10.976-24.463 24.473-24.463h366.645c13.489-0.002 24.484 10.965 24.484 24.463zM222.2 381.647c0-13.496 10.981-24.463 24.478-24.463h8.791c15.474 43.127 53.831 48.926 53.831 48.926h-62.622c-13.477 0-24.478-10.965-24.478-24.463z" />
<glyph unicode="&#xe951;" glyph-name="email" d="M934 816.667h-844c-49.564 0-90-40.392-90-90v-600c0-49.44 40.256-90 90-90h844c49.44 0 90 40.256 90 90v600c0 49.44-40.256 90-90 90zM921.572 756.667l-407.664-407.666-411.19 407.666h818.854zM60 139.091v575.438l288.958-286.48-288.958-288.958zM102.426 96.667l289.14 289.14 101.314-100.444c11.728-11.628 30.654-11.59 42.334 0.092l98.786 98.786 287.574-287.574h-819.148zM964 139.093l-287.574 287.574 287.574 287.576v-575.15z" />
<glyph unicode="&#xe952;" glyph-name="completed" d="M800.219 530.917h-73.656v193.937c0 117.898-95.914 213.812-213.812 213.812s-213.812-95.914-213.812-213.812v-193.945h-73.953c-23.703 0-42.984-19.281-42.984-42.977v-530.281c0-23.703 19.281-42.984 42.984-42.984h575.234c23.695 0 42.977 19.281 42.977 42.984v530.281c0 23.695-19.281 42.984-42.977 42.984zM359 724.855c0 84.773 68.977 153.75 153.75 153.75s153.75-68.977 153.75-153.75v-193.945h-48.984v196.055c0 57.852-47.062 104.914-104.914 104.914s-104.914-47.062-104.914-104.914v-196.055h-48.68v193.945zM557.453 530.917h-89.703v196.047c0 24.727 20.117 44.852 44.852 44.852 24.727 0 44.852-20.125 44.852-44.852zM783.133-25.27h-541.062v496.117h541.062zM416.742 80.542c5.867-5.867 13.555-8.797 21.242-8.797 7.68 0 15.367 2.93 21.234 8.797l242.023 242.023c11.727 11.727 11.727 30.742 0 42.477-11.727 11.727-30.742 11.727-42.477 0l-220.781-220.789-71.258 71.25c-11.727 11.727-30.742 11.727-42.469 0s-11.727-30.742 0-42.477z" />
<glyph unicode="&#xe953;" glyph-name="chatbox" d="M874 638.667h-90v150c0 82.711-67.289 150-150 150h-484c-82.711 0-150-67.289-150-150v-300c0-72.437 51.617-133.047 120-146.984v-93.016c0-11.062 6.094-21.227 15.844-26.453 9.734-5.203 21.57-4.656 30.797 1.492l73.359 48.906v-83.945c0-82.711 67.289-150 150-150h294.664l172.32-118.703c9.187-6.336 21.117-7.031 30.969-1.852 9.867 5.18 16.047 15.406 16.047 26.555v97.016c68.383 13.937 120 74.547 120 146.984v300c0 82.711-67.289 150-150 150zM150 398.668c-49.625 0-90 40.375-90 90v300c0 49.625 40.375 90 90 90h484c49.625 0 90-40.375 90-90v-300c0-49.625-40.375-90-90-90h-304c-5.922 0-11.711-1.75-16.641-5.039l-133.359-88.906v63.945c0 16.57-13.43 30-30 30zM964 188.668c0-49.625-40.375-90-90-90-16.57 0-30-13.43-30-30v-66.906l-132.976 91.609c-5.008 3.453-10.945 5.297-17.023 5.297h-304c-49.625 0-90 40.375-90 90v123.945l39.086 26.055h294.914c82.711 0 150 67.289 150 150v90h90c49.625 0 90-40.375 90-90zM210 728.667h244c16.57 0 30 13.43 30 30s-13.43 30-30 30h-244c-16.57 0-30-13.43-30-30s13.43-30 30-30zM210 608.667h244c16.57 0 30 13.43 30 30s-13.43 30-30 30h-244c-16.57 0-30-13.43-30-30s13.43-30 30-30zM210 488.667h364c16.57 0 30 13.43 30 30s-13.43 30-30 30h-364c-16.57 0-30-13.43-30-30s13.43-30 30-30zM604 758.667c0-16.57-13.43-30-30-30s-30 13.43-30 30 13.43 30 30 30 30-13.43 30-30zM604 638.667c0-16.57-13.43-30-30-30s-30 13.43-30 30 13.43 30 30 30 30-13.43 30-30zM814 248.668h-360c-16.57 0-30-13.43-30-30s13.43-30 30-30h360c16.57 0 30 13.43 30 30s-13.43 30-30 30z" />
<glyph unicode="&#xe954;" glyph-name="menu" d="M982.636 489.364h-941.272c-22.844 0-41.364-18.518-41.364-41.364s18.52-41.364 41.364-41.364h941.272c22.846 0 41.364 18.518 41.364 41.364 0 22.844-18.518 41.364-41.364 41.364zM982.636 803.122h-941.272c-22.844 0-41.364-18.52-41.364-41.364s18.52-41.364 41.364-41.364h941.272c22.846 0 41.364 18.52 41.364 41.364s-18.518 41.364-41.364 41.364zM982.636 175.606h-941.272c-22.844 0-41.364-18.518-41.364-41.364s18.52-41.364 41.364-41.364h941.272c22.846 0 41.364 18.518 41.364 41.364s-18.518 41.364-41.364 41.364z" />
<glyph unicode="&#xea11;" glyph-name="checkmark" d="M397.434 42.304l-397.868 391.6 197.378 194.27 200.49-197.332 429.62 422.852 197.378-194.27-626.998-617.12zM107.912 433.904l289.524-284.962 518.656 510.482-89.036 87.632-429.62-422.852-200.49 197.334-89.034-87.634z" />
</font>
</defs>
</svg>
